<svg width="48" height="48" viewBox="0 0 48 48" fill="none" xmlns="http://www.w3.org/2000/svg">
<rect width="48" height="48" rx="4" fill="white"/>
<path d="M16.9124 35.8743C16.9008 35.8627 16.8892 35.5178 16.8892 35.1071V34.3632L17.2495 34.2082C17.4432 34.1229 17.6757 34.0338 17.761 34.0067C17.9353 33.9524 19.5859 33.0458 19.7952 32.8908C20.0199 32.7203 20.5585 32.1933 20.7793 31.9182C21.2753 31.306 21.2404 31.0813 20.5856 30.6861C20.0935 30.3955 19.9889 30.2948 19.9889 30.1165C19.9889 29.822 20.1323 29.6244 20.3996 29.5508C20.5546 29.5082 20.5934 29.5121 20.791 29.5857C20.9149 29.6322 21.3295 29.8569 21.7131 30.0816C23.3405 31.0387 23.3482 31.0426 23.9333 31.2557C24.9989 31.647 25.6614 31.7826 26.6727 31.8253C28.5713 31.8989 30.404 31.2983 31.6517 30.1901C31.9384 29.9344 31.9423 29.9344 31.9539 30.0352C31.9655 30.1126 31.9345 30.1785 31.8415 30.2715C31.7718 30.3451 31.6982 30.4032 31.6827 30.4032C31.6672 30.4032 31.6168 30.4381 31.5742 30.4807C31.5044 30.5505 31.4967 30.6086 31.4967 31.0542V31.5501L31.6323 31.5347C31.7292 31.523 31.7679 31.4998 31.7679 31.4494C31.7679 31.3642 31.8377 31.306 31.9616 31.2867C32.0314 31.2789 32.0624 31.2479 32.0701 31.1782C32.0856 31.0736 32.1786 30.9883 32.2832 30.9844C32.322 30.9844 32.3491 30.9534 32.3491 30.907C32.3491 30.845 32.3762 30.8295 32.4847 30.8295C32.6048 30.8295 32.6242 30.8178 32.6475 30.7132C32.6668 30.6086 32.6823 30.597 32.8141 30.597C32.9574 30.597 32.9652 30.5892 32.9884 30.442C33.0117 30.3025 33.0272 30.287 33.1241 30.287C33.186 30.287 33.2403 30.2676 33.248 30.2444C33.2558 30.2211 33.3178 30.2095 33.3875 30.2173C33.5115 30.2289 33.5076 30.2328 33.0233 30.6551C32.7521 30.8915 32.353 31.2363 32.1399 31.4262C31.5393 31.9531 31.179 32.2088 30.7063 32.4374C29.416 33.069 27.9049 33.2473 25.9753 32.9993C24.9872 32.8714 23.7202 32.5808 23.0305 32.3173C22.705 32.1972 22.3021 32.1314 22.2013 32.1856C22.1587 32.205 22.0812 32.3057 22.0192 32.4065C21.5233 33.2628 20.3492 34.2353 19.1093 34.8204C18.8807 34.9289 18.6211 35.0529 18.5359 35.0916C18.4507 35.1342 18.2298 35.2195 18.0438 35.2853C17.8578 35.3551 17.5324 35.5178 17.3192 35.6534C17.1061 35.789 16.924 35.8859 16.9124 35.8743Z" fill="#F9ADA0"/>
<path d="M35.6618 30.1784C35.4022 30.1551 35.2937 30.1242 35.2937 30.0777C35.2937 30.0467 35.3208 30.0118 35.3557 30.0002C35.4526 29.9614 35.6424 29.973 35.6424 30.0157C35.6424 30.0389 35.7199 30.0467 35.8555 30.0312C36.0686 30.004 36.0686 30.004 36.0686 30.1087C36.0686 30.221 36.0803 30.2171 35.6618 30.1784Z" fill="#FABFAF"/>
<path d="M34.7437 30.0308C34.333 29.9223 34.5306 29.8138 34.9955 29.8874C35.1156 29.9106 35.1389 29.93 35.1389 30.0036C35.1389 30.1121 35.0769 30.1199 34.7437 30.0308Z" fill="#FABFAF"/>
<path d="M27.467 29.7795C27.0291 29.7175 26.2232 29.3843 25.4987 28.9659C25.0647 28.714 24.4254 28.2994 24.3905 28.2413C24.3711 28.2103 25.1422 27.6523 25.2003 27.6523C25.2158 27.6523 25.3437 27.7221 25.487 27.8073C25.8629 28.0321 26.3162 28.2025 27.219 28.466C27.6568 28.5939 28.0714 28.7218 28.1451 28.7528C28.3117 28.8225 28.4008 28.993 28.4279 29.2875C28.4434 29.4967 28.4395 29.5238 28.3388 29.6284C28.1761 29.7989 27.9087 29.8454 27.467 29.7795Z" fill="#F9ADA0"/>
<path d="M32.4539 29.4213C32.5934 29.2508 32.6205 29.2508 32.6205 29.4174C32.6205 29.5492 32.6128 29.5531 32.481 29.5531H32.3416L32.4539 29.4213Z" fill="#FABFAF"/>
<path d="M32.4692 28.961C32.4498 28.9106 32.3336 28.7944 32.2135 28.7014C31.857 28.4263 31.5819 28.0969 31.3998 27.7133C31.1634 27.229 31.0937 26.8686 31.1286 26.2913C31.1518 25.8922 31.148 25.8225 31.0821 25.7179C30.9813 25.5435 30.6946 25.3691 30.1018 25.1212C29.6058 24.9119 29.106 24.6446 29.0208 24.54C28.9898 24.5051 29.0905 24.385 29.385 24.0905L29.7841 23.6914L30.0902 23.8851C30.7334 24.2997 31.3417 24.5555 31.6788 24.5555C31.8183 24.5555 31.8454 24.5671 31.8454 24.633C31.8454 24.6988 31.8183 24.7104 31.671 24.7104H31.4967V26.1286C31.4967 27.3336 31.5044 27.5545 31.5548 27.601C31.5858 27.6358 31.6129 27.7211 31.6129 27.7947C31.6129 27.8877 31.6323 27.9264 31.671 27.9264C31.702 27.9264 31.7292 27.9574 31.7292 28C31.7292 28.0504 31.764 28.0775 31.8454 28.0969C31.9268 28.1124 31.9616 28.1395 31.9616 28.1977C31.9616 28.2403 31.9888 28.2751 32.0236 28.2751C32.0934 28.2751 32.1941 28.3643 32.1941 28.4263C32.1941 28.4495 32.2174 28.4689 32.2445 28.4689C32.2755 28.4689 32.3375 28.5038 32.3878 28.5464C32.4382 28.589 32.4925 28.6239 32.5118 28.6239C32.5273 28.6239 32.5428 28.6587 32.5428 28.7014C32.5428 28.744 32.5622 28.7789 32.5816 28.7789C32.6048 28.7789 32.6203 28.8409 32.6203 28.9145C32.6203 29.0733 32.5235 29.1043 32.4692 28.961Z" fill="#F9ADA0"/>
<path d="M33.3958 28.2725V28.1562L33.5507 28.2337C33.636 28.2764 33.7057 28.3306 33.7057 28.35C33.7057 28.3732 33.636 28.3887 33.5507 28.3887C33.4035 28.3887 33.3958 28.381 33.3958 28.2725Z" fill="#FABFAF"/>
<path d="M32.2057 27.5194C32.1553 27.4962 32.1166 27.4574 32.1166 27.4303C32.1166 27.4032 32.1011 27.3799 32.0778 27.3799C32.0584 27.3799 32.0391 27.3296 32.0391 27.2637C32.0391 27.1901 32.0197 27.1475 31.9848 27.1475C31.95 27.1475 31.9151 27.0738 31.888 26.9537C31.826 26.6631 31.8337 26.574 31.9267 26.5469C32.0274 26.512 32.0391 26.5236 32.0662 26.7058C32.0933 26.8956 32.2754 27.2831 32.411 27.4497L32.5157 27.5737L32.4033 27.5698C32.3413 27.5659 32.2522 27.5466 32.2057 27.5194Z" fill="#FABFAF"/>
<path d="M18.9232 27.3736C18.5047 27.3426 17.7066 27.2263 17.1176 27.1062L16.8968 27.0597L16.8813 26.6296C16.8696 26.3933 16.8619 26.1956 16.8658 26.1918C16.8696 26.1879 17.0556 26.215 17.2765 26.2538C17.846 26.3584 18.528 26.4126 19.2022 26.4126H19.7756L20.0469 26.6296C20.198 26.7497 20.4615 26.9512 20.6397 27.0829C20.814 27.2147 20.9574 27.3309 20.9574 27.3464C20.9574 27.4162 19.7253 27.4317 18.9232 27.3736Z" fill="#F9ADA0"/>
<path d="M22.5577 26.6682C22.1703 26.4047 21.6162 26.0134 21.3256 25.7964L20.8025 25.4051V19.6357V13.8624L21.0078 13.9205C21.7634 14.1453 22.5538 14.6451 23.0769 15.2379L23.29 15.4782L23.662 15.1023C24.3866 14.3739 25.3242 13.8934 26.1999 13.8004C26.4479 13.7733 26.4595 13.7772 26.4595 13.8547C26.4595 13.9244 26.4363 13.936 26.2852 13.936H26.1108V19.3451V24.7541L26.3627 24.727C26.5021 24.7115 26.6145 24.7076 26.6145 24.7231C26.6145 24.758 25.5335 25.6143 24.9871 26.0095C24.4059 26.428 23.3365 27.1487 23.2939 27.1487C23.2745 27.1448 22.9452 26.9278 22.5577 26.6682Z" fill="#F9ADA0"/>
<path d="M31.927 26.1441C31.8844 26.117 31.8805 26.0589 31.896 25.9039C31.9115 25.7876 31.9386 25.6908 31.9619 25.683C31.9813 25.6753 32.0006 25.6443 32.0006 25.6133C32.0006 25.5823 32.0239 25.559 32.0549 25.559C32.0898 25.559 32.1169 25.5125 32.1246 25.435C32.1324 25.3382 32.1556 25.3033 32.2254 25.2955C32.2796 25.2878 32.3106 25.2568 32.3106 25.2064C32.3106 25.1406 32.3377 25.1328 32.5431 25.1328C32.671 25.1328 32.7756 25.1483 32.7756 25.1716C32.7756 25.1948 32.7601 25.2103 32.7407 25.2103C32.7252 25.2103 32.6283 25.2801 32.5315 25.3653C32.3377 25.5397 32.1905 25.7683 32.1169 26.0162C32.0665 26.179 32.0278 26.2061 31.927 26.1441Z" fill="#FABFAF"/>
<path d="M35.5961 25.4947C35.5574 25.487 35.5264 25.456 35.5264 25.425C35.5264 25.363 35.6116 25.3281 35.7627 25.3281C35.8557 25.3281 35.8751 25.3436 35.8751 25.425C35.8751 25.5064 35.8557 25.5219 35.7705 25.518C35.7085 25.5141 35.631 25.5064 35.5961 25.4947Z" fill="#FABFAF"/>
<path d="M35.1313 25.4557C35.0925 25.4479 35.0615 25.4169 35.0615 25.3859C35.0615 25.3317 35.1778 25.2891 35.3444 25.2891C35.4296 25.2891 35.449 25.3046 35.449 25.3859C35.449 25.4712 35.4335 25.4828 35.325 25.4789C35.2553 25.475 35.1661 25.4673 35.1313 25.4557Z" fill="#FABFAF"/>
<path d="M34.0154 25.3285C33.7287 25.2898 33.4071 25.2472 33.2986 25.2355C32.9228 25.189 32.853 25.1697 32.853 25.1193C32.853 25.0883 32.8918 25.0573 32.9421 25.0418C33.0778 25.0069 33.5505 25.0147 33.5505 25.0534C33.5505 25.0728 33.6745 25.0999 33.8217 25.1154C33.9728 25.1309 34.0929 25.1542 34.0929 25.1697C34.0929 25.1813 34.1627 25.189 34.2479 25.1813C34.3332 25.1735 34.4029 25.1813 34.4029 25.2007C34.4029 25.22 34.4726 25.2278 34.5579 25.22C34.7012 25.2045 34.7129 25.2123 34.7129 25.3053C34.7129 25.4254 34.7322 25.4254 34.0154 25.3285Z" fill="#FABFAF"/>
<path d="M31.9619 24.5522C31.9619 24.5095 32.4734 24.2422 32.5625 24.2422C32.64 24.2422 32.6361 24.3817 32.5586 24.4127C32.5237 24.4243 32.454 24.4359 32.4036 24.4359C32.3494 24.4359 32.3106 24.4592 32.3106 24.4902C32.3106 24.5212 32.2835 24.556 32.2486 24.5677C32.1518 24.6064 31.9619 24.5948 31.9619 24.5522Z" fill="#FABFAF"/>
<path d="M32.4653 20.2591C32.4653 20.1584 32.6513 20.1119 32.9109 20.1506C33.0543 20.1739 33.0853 20.1661 33.0853 20.1196C33.0853 20.0731 33.1279 20.0576 33.2829 20.0576C33.403 20.0576 33.4999 20.0344 33.5347 19.9995C33.5696 19.9647 33.6665 19.9414 33.7672 19.9414C33.9067 19.9414 33.9377 19.953 33.9377 20.0112C33.9377 20.1429 33.4611 20.2785 32.8838 20.3134C32.477 20.3405 32.4653 20.3366 32.4653 20.2591Z" fill="#FABFAF"/>
<path d="M32.0784 20.2714C32.0784 20.2171 32.2024 20.0195 32.2334 20.0195C32.2566 20.0195 32.2721 20.0815 32.2721 20.1551C32.2721 20.2753 32.2605 20.2908 32.1752 20.2908C32.121 20.2908 32.0784 20.283 32.0784 20.2714Z" fill="#FABFAF"/>
<path d="M32.3259 19.6181L32.446 19.2539L32.5933 19.25C32.7095 19.25 32.7366 19.2616 32.7366 19.3275C32.7366 19.3817 32.7095 19.405 32.6553 19.405C32.6088 19.405 32.5662 19.436 32.5545 19.4825C32.5429 19.5251 32.5197 19.56 32.5003 19.56C32.4809 19.56 32.4654 19.6026 32.4654 19.653C32.4654 19.8312 32.384 19.9862 32.2911 19.9862H32.2058L32.3259 19.6181Z" fill="#FABFAF"/>
<path d="M33.5 18.0447L33.3179 17.7734H33.4341C33.4961 17.7734 33.5504 17.7928 33.5504 17.8122C33.5504 17.8354 33.5775 17.8509 33.6085 17.8509C33.6433 17.8509 33.6666 17.8858 33.6666 17.9478C33.6666 18.002 33.686 18.0447 33.7053 18.0447C33.7286 18.0447 33.7441 18.1067 33.7441 18.1803C33.7441 18.2539 33.7325 18.3159 33.717 18.3159C33.6976 18.312 33.6046 18.1919 33.5 18.0447Z" fill="#FABFAF"/>
<path d="M32.7484 16.9859C32.6554 16.8541 32.5818 16.7301 32.5818 16.7146C32.5818 16.6991 32.6244 16.6875 32.6787 16.6875C32.7406 16.6875 32.7755 16.7107 32.7755 16.7456C32.7755 16.7766 32.8026 16.8037 32.8336 16.8037C32.8646 16.8037 32.8918 16.8386 32.8918 16.8812C32.8918 16.9239 32.9111 16.9587 32.9305 16.9587C32.9538 16.9587 32.9693 17.0207 32.9693 17.0943C32.9693 17.168 32.9576 17.23 32.9421 17.23C32.9228 17.23 32.8375 17.1176 32.7484 16.9859Z" fill="#FABFAF"/>
<path d="M33.4733 16.4587C33.4733 16.4005 33.4462 16.3812 33.3764 16.3812C33.2873 16.3812 33.2795 16.3695 33.2795 16.1797C33.2795 15.9821 33.2795 15.9782 33.3493 16.0518C33.388 16.0944 33.4888 16.2223 33.5663 16.3347L33.7135 16.5362H33.5934C33.5004 16.5362 33.4733 16.5207 33.4733 16.4587Z" fill="#FABFAF"/>
<path d="M32.3882 16.003C32.2797 15.6504 32.0201 15.1002 31.7954 14.7553C31.6443 14.519 31.6404 14.5073 31.7102 14.457C31.8419 14.3601 31.9155 14.3911 31.9426 14.5577C31.9581 14.643 31.993 14.7243 32.0201 14.7398C32.0705 14.7708 32.1751 15.0149 32.2216 15.2087C32.2332 15.2552 32.2642 15.2939 32.2914 15.2939C32.3534 15.2939 32.4153 15.4683 32.4502 15.724C32.4657 15.848 32.4928 15.9138 32.5277 15.9138C32.5665 15.9138 32.582 15.9681 32.582 16.1076C32.582 16.4021 32.4967 16.3556 32.3882 16.003Z" fill="#FABFAF"/>
<path d="M32.3881 14.9074C32.3881 14.888 32.361 14.8686 32.33 14.8686C32.299 14.8686 32.2719 14.8454 32.2719 14.8144C32.2719 14.7873 32.237 14.7524 32.1905 14.7408C32.1479 14.7292 32.1014 14.6827 32.0898 14.64C32.0782 14.5935 32.0433 14.5587 32.0162 14.5587C31.9852 14.5587 31.9619 14.5238 31.9619 14.4812C31.9619 14.2952 32.2719 14.4579 32.4927 14.764L32.6284 14.9461H32.5082C32.4424 14.9461 32.3881 14.9306 32.3881 14.9074Z" fill="#FABFAF"/>
<path d="M18.4278 11.8804C18.2457 10.9427 17.6296 9.97016 17.0174 9.66019C16.8741 9.59045 16.8121 9.5362 16.8121 9.48195C16.8121 9.43933 16.8314 9.40446 16.8508 9.40446C16.8741 9.40446 16.8896 9.19135 16.8896 8.84263C16.8896 8.49391 16.9051 8.2808 16.9283 8.2808C16.9516 8.2808 16.9671 8.24593 16.9671 8.20331C16.9671 8.16069 16.9516 8.12582 16.9283 8.12582C16.9051 8.12582 16.8896 7.88559 16.8896 7.4865C16.8896 6.8743 16.8857 6.84717 16.8121 6.84717C16.692 6.84717 16.7191 6.77356 16.8624 6.71156C17.2189 6.56432 18.4821 6.28147 19.381 6.14973C20.2644 6.02187 20.9812 5.98312 22.0196 6.00637C23.3525 6.03737 24.2166 6.16523 25.4565 6.51783C26.6073 6.8433 28.1261 7.471 28.4826 7.76547C28.8274 8.0522 28.8623 8.06382 29.1335 7.97083C29.6179 7.80809 30.5982 7.83522 31.3809 8.03283C31.7606 8.12969 32.6246 8.52878 32.6517 8.62178C32.6634 8.65277 32.613 8.66827 32.4968 8.66827C32.3728 8.66827 32.3147 8.6489 32.272 8.59078C32.241 8.54816 32.1868 8.51329 32.148 8.51329C32.1093 8.51329 32.0783 8.49779 32.0783 8.47454C32.0783 8.45517 32.0473 8.43579 32.0086 8.43579C31.9698 8.43579 31.9039 8.40867 31.8613 8.37767C31.8226 8.34667 31.7489 8.31955 31.7025 8.31955C31.6482 8.31955 31.6133 8.2963 31.6133 8.26143C31.6133 8.23043 31.5862 8.20331 31.5552 8.20331C31.5048 8.20331 31.4971 8.2808 31.4971 8.6799C31.4971 8.9395 31.5126 9.17198 31.5281 9.19523C31.5436 9.21848 31.6133 9.25335 31.6831 9.26885C31.7489 9.28047 31.8071 9.31147 31.8071 9.33084C31.8071 9.35022 31.8342 9.36571 31.8691 9.36571C31.9349 9.36571 32.0395 9.45483 32.0395 9.51295C32.0395 9.53233 32.1093 9.55945 32.1907 9.57495C32.2759 9.58657 32.3689 9.62532 32.4038 9.65631C32.4348 9.68731 32.4696 9.71443 32.4851 9.71443C32.5316 9.71443 32.6207 9.8268 32.6207 9.88492C32.6207 9.92367 32.6556 9.94692 32.7176 9.94692C32.7835 9.94692 32.8145 9.96629 32.8145 10.0167C32.8145 10.0515 32.8649 10.1058 32.9307 10.1329C33.0121 10.1716 33.047 10.2143 33.047 10.2801C33.047 10.3383 33.0702 10.3731 33.1051 10.3731C33.1477 10.3731 33.1632 10.4158 33.1632 10.5087V10.6482L32.8455 10.3228C32.5084 9.98566 31.9233 9.60207 31.4893 9.43546C30.7299 9.14873 29.6218 9.13711 28.9592 9.41608C28.254 9.70669 27.665 10.3809 27.4829 11.1093C27.4326 11.3031 27.4248 11.458 27.4403 11.768L27.4636 12.1749L26.9676 12.1826L26.4678 12.1865L26.4445 12.0121C26.3825 11.5472 26.2895 11.4115 25.9059 11.2178C25.1349 10.8303 23.895 10.6017 22.7791 10.6444C22.535 10.6521 22.1901 10.6599 22.0119 10.6599L21.6864 10.6637L21.5547 10.5204C21.4462 10.3964 21.4229 10.346 21.4229 10.1949C21.4229 9.98566 21.5353 9.77643 21.6864 9.69894C22.2947 9.38509 24.4723 9.57107 25.7238 10.036C26.0144 10.1445 26.5026 10.2375 26.6266 10.2026C26.677 10.191 26.7622 10.0942 26.8359 9.97791C26.9017 9.86555 27.0877 9.59819 27.2466 9.38896C27.5682 8.96662 27.5953 8.9085 27.5294 8.78064C27.4713 8.6644 26.8862 8.31955 26.4484 8.14519C24.9566 7.54462 23.988 7.38963 21.6942 7.38963C20.3148 7.38963 19.5437 7.42838 19.04 7.52524C18.3464 7.65698 17.215 7.94371 17.1453 8.0057C17.091 8.05607 17.0794 8.10257 17.0988 8.23431C17.1337 8.48229 17.2344 8.59465 17.6413 8.83876C18.1295 9.12936 18.4317 9.41608 18.7262 9.86555C19.0788 10.4041 19.4081 11.2721 19.5398 12.0044L19.5631 12.1439L19.071 12.1904C18.7959 12.2136 18.5596 12.233 18.5363 12.233C18.5169 12.233 18.4666 12.0741 18.4278 11.8804Z" fill="#F9ADA0"/>
<path d="M33.8216 9.81085C33.8216 9.77985 33.8061 9.75273 33.7828 9.75273C33.7635 9.75273 33.7441 9.70236 33.7441 9.63649C33.7441 9.528 33.7325 9.52025 33.6007 9.52025C33.3992 9.51637 33.3179 9.44663 33.3179 9.27227V9.12891L33.4264 9.2064C33.4845 9.2529 33.6705 9.41563 33.841 9.57837L34.1509 9.86509L33.9882 9.86897C33.8642 9.86897 33.8216 9.85347 33.8216 9.81085Z" fill="#FABFAF"/>
<path d="M11.2326 40.0754C10.8528 39.9397 10.4073 39.5019 10.2445 39.0951C10.0973 38.7347 10.0973 38.4247 10.2407 37.8435C10.3491 37.3902 10.3995 37.2197 10.9768 35.3638C11.1589 34.7787 11.3449 34.1432 11.3914 33.9495C11.6278 32.9537 11.3604 32.7019 9.37272 32.0122C7.48188 31.3573 6.69532 30.9427 5.95913 30.2104C5.37406 29.6331 5.05633 29.0829 4.85873 28.2925C4.76573 27.9321 4.68437 27.2463 4.68437 26.8201V26.5876L4.3124 26.2001C3.6382 25.4911 3.13837 24.7471 2.7664 23.9063L2.59204 23.5034V20.733V17.9665L2.7819 17.5596C3.18099 16.7149 3.6227 16.1144 4.3279 15.4557C5.27332 14.5761 5.34694 14.4909 5.57167 14.0608C5.68403 13.8438 5.88552 13.53 6.01725 13.3595C6.14512 13.1929 6.38147 12.879 6.54034 12.6659C7.35402 11.5422 9.3301 10.0427 11.0776 9.21744C11.7634 8.89197 12.5228 8.60912 13.2784 8.39214C14.0417 8.17515 14.4912 7.97755 15.4017 7.45446C16.0527 7.0825 16.5215 6.84227 16.8082 6.73378L17.0058 6.66016V7.33048C17.0058 7.69857 17.0213 8.00854 17.0407 8.01629C17.0562 8.02404 17.0795 8.10928 17.0911 8.2139C17.1066 8.35339 17.0988 8.39601 17.0601 8.39601C17.0175 8.39601 17.0058 8.50838 17.0058 8.95784C17.0058 9.34143 16.9942 9.51967 16.9632 9.51967C16.94 9.51967 16.9283 9.54291 16.94 9.57004C16.9555 9.60878 16.8935 9.59716 16.7346 9.53517C16.2774 9.34918 16.0488 9.30656 15.4947 9.31431C15.0491 9.31818 14.8786 9.33756 14.3323 9.45767C13.4256 9.65916 13.1777 9.74052 13.042 9.87226C12.8677 10.0466 12.9064 10.1629 13.3946 10.9107L13.8131 11.5539L13.8828 12.0343C13.9642 12.569 13.9526 13.0805 13.848 13.6927C13.7511 14.2545 13.693 14.4018 13.1079 15.599C12.2051 17.4434 11.9726 18.3113 11.9688 19.8457C11.9688 20.5315 12.023 21.043 12.178 21.8295C12.333 22.6083 12.3988 22.7711 12.8677 23.4879C13.6116 24.6309 14.1115 25.092 15.146 25.5996C15.5645 25.8011 16.3123 26.0607 16.7269 26.1459C16.8586 26.173 16.9671 26.2079 16.9671 26.2234C16.9671 26.235 17.0058 26.2428 17.0562 26.2389C17.1027 26.235 17.1105 26.2389 17.0756 26.2466C17.0136 26.2621 17.0058 26.3125 17.0058 26.6147C17.0058 26.9286 17.0136 26.9635 17.0833 26.9828C17.2073 27.0177 17.1802 27.1184 17.0562 27.0874C16.7811 27.0293 15.8861 26.7503 15.5645 26.6225C14.6849 26.2815 13.4218 25.6073 12.9181 25.2121C12.5771 24.9448 11.8796 24.5379 11.4573 24.3597C10.7289 24.0574 9.93455 23.9063 9.23711 23.9451C7.88485 24.0226 6.71082 24.7006 6.17999 25.7119C5.5213 26.9712 5.93201 28.5792 7.18741 29.6331C8.24132 30.5204 9.82994 31.1791 11.6588 31.493C12.3485 31.6092 13.4838 31.6402 13.8286 31.5472C14.3207 31.4193 14.7624 31.0861 14.9561 30.6948C15.0956 30.4042 15.0917 29.9625 14.9406 29.6602C14.7973 29.3658 14.5415 29.0907 14.2161 28.8737C13.5884 28.4591 12.4725 28.0251 11.5232 27.8275C11.0582 27.7306 10.9768 27.7229 10.4344 27.75L9.84931 27.7733L9.72919 27.6531C9.46572 27.3897 9.50834 26.9402 9.82219 26.7387C9.90355 26.6845 9.99267 26.6767 10.3918 26.6961C11.589 26.7503 13.9332 27.4245 14.6268 27.9089C14.712 27.9709 14.9406 28.1297 15.1344 28.2615C15.5257 28.5288 15.7078 28.7226 15.9054 29.0752C16.258 29.699 16.2115 30.6018 15.7931 31.3341C15.3901 32.0393 14.526 32.5391 13.4915 32.667C12.8716 32.7445 12.8871 32.7251 12.7437 33.5775C12.5926 34.4648 12.4453 35.0344 11.9339 36.716C11.4805 38.2039 11.4457 38.4015 11.558 38.6766C11.6084 38.7967 11.6317 38.8122 11.7556 38.8122C11.8331 38.8122 11.9688 38.7735 12.0579 38.7308C12.2439 38.634 12.8483 38.0373 13.4528 37.3553C13.8828 36.8633 14.4369 36.3285 15.4637 35.4141C16.0837 34.86 16.2813 34.7128 16.7462 34.4571L17.0058 34.3098V34.9879V35.666L17.1608 35.6079C17.2461 35.573 17.3158 35.5304 17.3158 35.511C17.3158 35.4684 17.4592 35.4722 17.4863 35.5149C17.4979 35.5342 17.4475 35.5769 17.3739 35.6117C17.3003 35.6466 17.2306 35.6931 17.2189 35.7125C17.2034 35.7357 17.1492 35.7396 17.0911 35.728C17.0058 35.7086 16.9942 35.7125 17.033 35.7512C17.0717 35.7938 17.0252 35.8442 16.785 36.0108C16.4363 36.2511 15.0026 37.5452 14.7082 37.8823C14.5958 38.0063 14.2974 38.3473 14.0417 38.6417C13.4915 39.2694 12.9297 39.7809 12.6081 39.9397C12.2555 40.1102 11.5309 40.1838 11.2326 40.0754ZM5.37793 25.1772C5.42055 25.154 5.69953 24.8595 5.99401 24.5224C7.33852 23.0035 8.02821 22.5425 9.06275 22.4727C9.49284 22.4456 9.96555 22.5347 10.4809 22.7401C10.6979 22.8253 10.9148 22.8873 10.9652 22.8795C11.0311 22.8718 11.0853 22.8137 11.1473 22.6936C11.2481 22.4921 11.2442 22.4301 11.0853 21.8993L10.9807 21.5505V20.02C10.9807 18.2958 10.9536 18.505 11.3449 17.0985C11.527 16.4515 11.5774 16.3275 12.085 15.2968C12.5771 14.2894 12.6391 14.1383 12.7669 13.6462C12.949 12.9294 12.9723 12.5458 12.8677 12.1234C12.7747 11.767 12.5771 11.4028 12.3833 11.24C12.0617 10.9649 11.4922 10.8293 11.0078 10.9146C10.3414 11.0269 9.25648 11.7166 8.29556 12.6388C7.43926 13.4563 6.76894 14.4715 6.59846 15.2038C6.50934 15.5874 6.47447 16.2422 6.51321 16.8544C6.56358 17.7146 6.64495 18.1834 7.16416 20.6594C7.30752 21.3413 7.3114 21.4227 7.17966 21.5273C7.03242 21.6435 6.82319 21.6319 6.63333 21.504C6.41635 21.3529 6.29236 21.1941 6.14124 20.8647C5.88939 20.3223 5.76153 19.7604 5.53679 18.2183C5.37018 17.0714 5.33531 16.9125 5.22295 16.8002C5.10283 16.6801 5.00209 16.7111 4.76961 16.9513C4.59525 17.1257 4.45576 17.3465 4.09542 18.0052C3.84744 18.4624 3.59946 18.9429 3.54909 19.0707C3.12675 20.0859 3.16162 21.628 3.6382 23.0229C3.80869 23.515 4.20391 24.3635 4.41701 24.6929C4.56425 24.9138 4.83548 25.2237 4.94009 25.2818C5.00596 25.3206 5.19582 25.2741 5.37793 25.1772Z" fill="#F9ADA0"/>
<path d="M17.5288 35.4381C17.4978 35.3916 17.5831 35.318 17.6334 35.349C17.6489 35.3606 17.6644 35.349 17.6644 35.3257C17.6644 35.3025 17.6838 35.2947 17.7032 35.3064C17.7264 35.318 17.7419 35.3141 17.7419 35.2947C17.7419 35.2482 17.9705 35.163 18.0132 35.1901C18.0325 35.2017 18.0558 35.194 18.0674 35.1746C18.079 35.1553 18.141 35.1243 18.1992 35.101C18.2921 35.07 18.3076 35.0739 18.3115 35.1359C18.3193 35.2172 18.2263 35.2366 18.1953 35.163C18.1798 35.1281 18.172 35.1359 18.172 35.1746C18.1682 35.2134 18.0674 35.2754 17.8892 35.349C17.7342 35.411 17.5947 35.4652 17.5831 35.473C17.5676 35.4807 17.5443 35.4652 17.5288 35.4381Z" fill="#F9B4A4"/>
<path d="M18.3855 35.1167C18.3738 35.0818 18.3855 35.0586 18.4203 35.0586C18.4823 35.0586 18.4978 35.1206 18.4436 35.1516C18.4242 35.1632 18.401 35.1477 18.3855 35.1167Z" fill="#F9B4A4"/>
<path d="M18.6331 34.9611C18.6331 34.9262 18.6563 34.9146 18.6912 34.9262C18.7222 34.9417 18.7493 34.965 18.7493 34.9844C18.7493 35.0037 18.7222 35.0192 18.6912 35.0192C18.6602 35.0192 18.6331 34.9921 18.6331 34.9611Z" fill="#F9B4A4"/>
<path d="M19.1989 34.7222C19.1873 34.6912 19.2028 34.668 19.2338 34.668C19.3113 34.668 19.3423 34.7338 19.2764 34.7571C19.2454 34.7687 19.2106 34.7532 19.1989 34.7222Z" fill="#F9B4A4"/>
<path d="M20.361 34.0269C20.3494 33.992 20.361 33.9688 20.3959 33.9688C20.4579 33.9688 20.4734 34.0307 20.4192 34.0617C20.3998 34.0734 20.3765 34.0579 20.361 34.0269Z" fill="#F9B4A4"/>
<path d="M19.4393 27.3921C19.4858 27.3844 19.5245 27.3611 19.5245 27.3418C19.5245 27.2875 20.0321 27.303 20.2026 27.365C20.3498 27.4193 20.3382 27.4193 19.8539 27.4154C19.5788 27.4115 19.3889 27.4038 19.4393 27.3921Z" fill="#F9B4A4"/>
<path d="M18.815 27.3489C18.7607 27.2986 18.7917 27.2559 18.8731 27.2676C18.9777 27.2831 19.0126 27.376 18.9157 27.376C18.8731 27.376 18.8266 27.3644 18.815 27.3489Z" fill="#F9B4A4"/>
<path d="M20.8262 27.3237C20.8146 27.2889 20.8262 27.2656 20.8572 27.2656C20.8843 27.2656 20.9308 27.2927 20.9579 27.3237C20.9967 27.3702 20.9928 27.3819 20.9269 27.3819C20.8843 27.3819 20.8417 27.3547 20.8262 27.3237Z" fill="#F9B4A4"/>
<path d="M18.3661 27.3325C18.3738 27.3286 18.4126 27.2976 18.4513 27.2705C18.5055 27.224 18.5172 27.2278 18.5172 27.2821C18.5172 27.3208 18.4862 27.3441 18.4319 27.3441C18.3854 27.3441 18.3583 27.3402 18.3661 27.3325Z" fill="#F9B4A4"/>
<path d="M18.0908 27.2495C18.0908 27.2185 18.1179 27.1914 18.1489 27.1914C18.1799 27.1914 18.2071 27.2185 18.2071 27.2495C18.2071 27.2805 18.1799 27.3076 18.1489 27.3076C18.1179 27.3076 18.0908 27.2805 18.0908 27.2495Z" fill="#F9B4A4"/>
<path d="M17.8853 27.2376C17.835 27.1911 17.8582 27.1484 17.9357 27.1484C17.9783 27.1484 18.0132 27.1756 18.0132 27.2066C18.0132 27.2647 17.9318 27.2879 17.8853 27.2376Z" fill="#F9B4A4"/>
<path d="M17.649 27.1714C17.6645 27.1404 17.6955 27.1133 17.7265 27.1133C17.7575 27.1133 17.7807 27.1404 17.7807 27.1714C17.7807 27.2024 17.7459 27.2295 17.7033 27.2295C17.6529 27.2295 17.6335 27.2101 17.649 27.1714Z" fill="#F9B4A4"/>
<path d="M17.3931 27.1263C17.3931 27.0914 17.4202 27.0721 17.4589 27.0798C17.5558 27.0992 17.5674 27.1883 17.4744 27.1883C17.4279 27.1883 17.3931 27.1651 17.3931 27.1263Z" fill="#F9B4A4"/>
<path d="M17.2576 27.1096C17.2266 27.0593 17.2537 27.0166 17.3118 27.036C17.3351 27.0476 17.339 27.0748 17.3196 27.1058C17.2963 27.1445 17.2808 27.1445 17.2576 27.1096Z" fill="#F9B4A4"/>
<path d="M18.858 26.4277C18.9045 26.4199 18.982 26.4199 19.0324 26.4277C19.0789 26.4354 19.0402 26.4432 18.9433 26.4432C18.8464 26.4432 18.8077 26.4354 18.858 26.4277Z" fill="#F9B4A4"/>
<path d="M19.5556 26.4277C19.6021 26.4199 19.6795 26.4199 19.7299 26.4277C19.7764 26.4354 19.7377 26.4432 19.6408 26.4432C19.5439 26.4432 19.5052 26.4354 19.5556 26.4277Z" fill="#F9B4A4"/>
<path d="M18.1996 26.3886C18.2461 26.3809 18.3236 26.3809 18.374 26.3886C18.4205 26.3964 18.3817 26.4041 18.2848 26.4041C18.188 26.4041 18.1492 26.3964 18.1996 26.3886Z" fill="#F9B4A4"/>
<path d="M21.113 25.6416C21.0394 25.5796 20.989 25.5137 21.0045 25.4982C21.02 25.4827 21.0433 25.4982 21.0588 25.5331C21.0704 25.5679 21.1053 25.5834 21.1363 25.5718C21.175 25.5563 21.2021 25.5796 21.2176 25.6338C21.2292 25.6764 21.2525 25.7036 21.2719 25.6919C21.2912 25.6803 21.3067 25.6919 21.3067 25.7113C21.3067 25.7772 21.2564 25.7617 21.113 25.6416Z" fill="#F9B4A4"/>
<path d="M20.5163 25.1746C19.4275 24.3028 18.1605 23.0745 17.4941 22.2492C16.6533 21.1953 16.0605 20.1259 15.8047 19.1921C15.7272 18.9208 15.7195 18.7891 15.7195 18.0684C15.7234 17.371 15.735 17.2082 15.8009 16.9564C16.1961 15.4763 17.374 14.2984 18.8463 13.9148C19.3656 13.7791 20.1327 13.7443 20.6093 13.8373C20.9542 13.9031 21.4153 14.0465 21.2951 14.0504C21.2564 14.0542 21.1634 14.0271 21.0859 13.9961C21.0123 13.9651 20.9425 13.938 20.9348 13.938C20.927 13.938 20.9154 16.534 20.9115 19.7074L20.8999 25.4807L20.5163 25.1746Z" fill="#F9ADA0"/>
<path d="M18.5945 12.1995C18.5945 12.1297 18.6604 12.122 18.734 12.1762C18.8037 12.2305 18.8037 12.2305 18.703 12.2343C18.641 12.2343 18.5945 12.2188 18.5945 12.1995Z" fill="#F9B4A4"/>
<path d="M18.9045 12.1333C18.9045 12.0597 18.982 12.0597 19.1215 12.1333L19.2339 12.1915H19.0712C18.9472 12.1915 18.9045 12.176 18.9045 12.1333Z" fill="#F9B4A4"/>
<path d="M18.3854 11.6644C18.3699 11.5869 18.366 11.5171 18.3737 11.5094C18.3854 11.4978 18.4047 11.552 18.4164 11.6334C18.4319 11.7109 18.4357 11.7806 18.428 11.7884C18.4164 11.8 18.397 11.7457 18.3854 11.6644Z" fill="#F9B4A4"/>
<path d="M18.2806 11.315C18.2612 11.2569 18.2341 11.1949 18.2225 11.1794C18.2109 11.16 18.2186 11.1445 18.238 11.1445C18.2574 11.1445 18.2884 11.2065 18.3116 11.2801C18.362 11.439 18.3387 11.4623 18.2806 11.315Z" fill="#F9B4A4"/>
<path d="M18.0057 10.7333C17.8352 10.4349 17.7654 10.2645 17.8546 10.3574C17.9204 10.4233 18.2149 10.9929 18.1994 11.0278C18.1955 11.0433 18.1064 10.9115 18.0057 10.7333Z" fill="#F9B4A4"/>
<path d="M19.0205 10.6442C19.0205 10.6248 19.0476 10.6055 19.0786 10.6055C19.1096 10.6055 19.1367 10.6248 19.1367 10.6442C19.1367 10.6675 19.1096 10.683 19.0786 10.683C19.0476 10.683 19.0205 10.6675 19.0205 10.6442Z" fill="#F9B4A4"/>
<path d="M22.1204 10.6442C22.1204 10.6248 22.1552 10.6055 22.194 10.6055C22.2366 10.6055 22.2831 10.6248 22.2947 10.6442C22.3102 10.6675 22.2753 10.683 22.2211 10.683C22.1669 10.683 22.1204 10.6675 22.1204 10.6442Z" fill="#F9B4A4"/>
<path d="M22.5466 10.6042C22.5466 10.5538 22.6241 10.5538 22.7016 10.6042C22.7481 10.6352 22.7365 10.6429 22.6551 10.6429C22.5931 10.6429 22.5466 10.6274 22.5466 10.6042Z" fill="#F9B4A4"/>
<path d="M17.5834 10.1163C17.5331 10.0582 17.5214 10.0349 17.5602 10.0621C17.595 10.0892 17.626 10.1008 17.626 10.0814C17.626 10.0621 17.6454 10.0776 17.6687 10.1163C17.7345 10.2325 17.6842 10.2287 17.5834 10.1163Z" fill="#F9B4A4"/>
<path d="M17.3815 9.91395C17.3001 9.82483 17.2962 9.78608 17.3698 9.8132C17.4008 9.82483 17.4318 9.86745 17.4435 9.91007C17.4667 10.0031 17.459 10.0031 17.3815 9.91395Z" fill="#F9B4A4"/>
<path d="M17.0484 9.68043C17.0096 9.65718 17.0096 9.64169 17.0445 9.61844C17.0949 9.58744 17.1375 9.61456 17.1181 9.67268C17.1065 9.69593 17.0794 9.69981 17.0484 9.68043Z" fill="#F9B4A4"/>
<path d="M18.3929 9.49505C18.2844 9.44081 18.2456 9.36719 18.327 9.36719C18.3464 9.36719 18.3541 9.38656 18.3425 9.40593C18.3309 9.42918 18.3425 9.44468 18.3735 9.44468C18.4045 9.44468 18.451 9.4718 18.4781 9.5028C18.5362 9.57255 18.5323 9.56867 18.3929 9.49505Z" fill="#F9B4A4"/>
<path d="M18.1177 9.24834C18.0789 9.20959 18.0634 9.16697 18.0828 9.15535C18.1022 9.14372 18.1487 9.16697 18.1835 9.20572C18.2688 9.30258 18.2107 9.33746 18.1177 9.24834Z" fill="#F9B4A4"/>
<path d="M17.9163 9.09831C17.8775 9.03244 17.9628 9.01694 18.0132 9.07506C18.0519 9.12156 18.0519 9.13318 18.0015 9.13318C17.9667 9.13318 17.9318 9.11768 17.9163 9.09831Z" fill="#F9B4A4"/>
<path d="M17.6295 8.90576C17.6024 8.88639 17.5947 8.86314 17.614 8.85152C17.6295 8.83989 17.6799 8.85539 17.7225 8.88639C17.8039 8.94838 17.7225 8.96388 17.6295 8.90576Z" fill="#F9B4A4"/>
<path d="M17.4359 8.78857C17.4088 8.7692 17.4011 8.74595 17.4204 8.73433C17.4359 8.7227 17.4863 8.7382 17.5289 8.7692C17.6103 8.83119 17.5289 8.84669 17.4359 8.78857Z" fill="#F9B4A4"/>
<path d="M17.0947 7.98408C16.9785 7.94146 17.0792 7.87172 17.2962 7.83684C17.3388 7.82909 17.4163 7.81359 17.4706 7.7981C17.6682 7.74773 17.8193 7.7361 17.8193 7.7671C17.8193 7.78647 17.6837 7.83297 17.521 7.87172C17.3543 7.91046 17.2032 7.95696 17.18 7.97246C17.1606 7.98796 17.118 7.99183 17.0947 7.98408Z" fill="#F9B4A4"/>
<path d="M17.8582 7.73797C17.8582 7.71859 17.8853 7.69922 17.9163 7.69922C17.9473 7.69922 17.9744 7.71859 17.9744 7.73797C17.9744 7.76121 17.9473 7.77671 17.9163 7.77671C17.8853 7.77671 17.8582 7.76121 17.8582 7.73797Z" fill="#F9B4A4"/>
<path d="M17.9976 7.68126C17.9821 7.64251 18.0054 7.62314 18.0635 7.61539C18.2495 7.60376 18.3463 7.59214 18.3967 7.58052C18.4238 7.57277 18.4548 7.58439 18.4626 7.60764C18.4742 7.63089 18.3928 7.66963 18.2805 7.69288C18.0325 7.751 18.0247 7.751 17.9976 7.68126Z" fill="#F9B4A4"/>
<path d="M18.5171 7.56835C18.5171 7.50248 18.5248 7.49861 18.6101 7.53348C18.6992 7.56835 18.6876 7.62647 18.5946 7.62647C18.552 7.62647 18.5171 7.59935 18.5171 7.56835Z" fill="#F9B4A4"/>
<path d="M18.7107 7.54265C18.7107 7.52328 18.7378 7.50391 18.7688 7.50391C18.7998 7.50391 18.8269 7.52328 18.8269 7.54265C18.8269 7.5659 18.7998 7.5814 18.7688 7.5814C18.7378 7.5814 18.7107 7.5659 18.7107 7.54265Z" fill="#F9B4A4"/>
<path d="M18.8927 7.48904C18.8772 7.4503 18.8927 7.44255 18.9469 7.45417C19.0515 7.48129 19.0786 7.54329 18.9895 7.54329C18.9469 7.54329 18.9043 7.52004 18.8927 7.48904Z" fill="#F9B4A4"/>
<path d="M19.0979 7.44939C19.0979 7.41452 19.125 7.40289 19.1754 7.41452C19.218 7.42614 19.2529 7.44939 19.2529 7.46876C19.2529 7.48813 19.218 7.50363 19.1754 7.50363C19.1328 7.50363 19.0979 7.48038 19.0979 7.44939Z" fill="#F9B4A4"/>
<path d="M19.408 7.40944C19.408 7.35907 19.4235 7.35519 19.4855 7.39006C19.5281 7.41331 19.5629 7.44043 19.5629 7.44818C19.5629 7.45981 19.5281 7.46756 19.4855 7.46756C19.4428 7.46756 19.408 7.44043 19.408 7.40944Z" fill="#F9B4A4"/>
<path d="M19.8342 7.36871C19.8342 7.29897 19.8536 7.29897 20.0473 7.36871L20.2023 7.42296L20.0202 7.42683C19.8807 7.42683 19.8342 7.41134 19.8342 7.36871Z" fill="#F9B4A4"/>
<path d="M20.803 7.35719C20.803 7.2952 21.0238 7.2797 21.1943 7.33395L21.3648 7.38819H21.0858C20.9308 7.39207 20.803 7.37657 20.803 7.35719Z" fill="#F9B4A4"/>
<path d="M22.3528 7.36335C22.3528 7.30911 22.3954 7.28199 22.4535 7.30523C22.5349 7.33623 22.5194 7.39435 22.4303 7.39435C22.3877 7.39435 22.3528 7.37885 22.3528 7.36335Z" fill="#F9B4A4"/>
<path d="M31.3724 31.1854L31.3608 30.4376L31.4577 30.3756C31.5119 30.3446 31.7367 30.1315 31.9614 29.9029C32.1861 29.6782 32.4109 29.4612 32.4612 29.4225C32.5349 29.3605 32.5465 29.3256 32.5271 29.2093C32.5155 29.128 32.5 29.0311 32.4961 28.9885C32.4884 28.9459 32.4612 28.8916 32.4302 28.8684C32.3992 28.8451 32.3876 28.8064 32.4031 28.7831C32.4264 28.7405 32.3799 28.7211 32.3024 28.7328C32.283 28.7328 32.2714 28.7095 32.2714 28.6785C32.2714 28.6243 32.2249 28.601 32.1435 28.6165C32.128 28.6204 32.1009 28.5894 32.0893 28.5545C32.0505 28.4538 31.973 28.384 31.9149 28.3957C31.8878 28.4034 31.8607 28.3685 31.8529 28.322C31.8452 28.2755 31.8064 28.2252 31.7677 28.2136C31.6824 28.1864 31.4964 27.9501 31.4964 27.8687C31.4964 27.7757 31.4538 27.6905 31.4151 27.7137C31.3957 27.7253 31.3802 27.7098 31.3802 27.6827C31.3686 27.2488 31.3879 24.5714 31.4034 24.5481C31.4112 24.5287 31.4654 24.5365 31.5158 24.5597C31.6398 24.614 31.8955 24.552 32.2714 24.366L32.562 24.2226H33.4144C34.3831 24.2226 34.6814 24.2614 35.8361 24.5326C36.9791 24.8 37.293 24.831 37.7928 24.7263C38.2539 24.6295 38.7111 24.3815 39.2652 23.9282C39.6023 23.6569 39.765 23.5717 39.9626 23.5678C40.2803 23.5601 40.4624 23.7887 40.4624 24.2033C40.4663 24.9395 39.796 25.3695 38.4011 25.5207C37.9052 25.5749 35.7896 25.5555 35.7702 25.4974C35.7625 25.478 35.6695 25.4703 35.561 25.478C35.4215 25.4858 35.3517 25.4742 35.3285 25.4393C35.3091 25.4083 35.2936 25.4044 35.2936 25.4238C35.2936 25.4703 34.6233 25.416 34.6039 25.3695C34.6001 25.3579 34.5264 25.3502 34.4412 25.3579C34.3559 25.3657 34.2862 25.3579 34.2862 25.3385C34.2862 25.3192 34.2165 25.3114 34.1312 25.3192C34.046 25.3269 33.9762 25.3192 33.9762 25.2998C33.9762 25.2804 33.9142 25.2727 33.8406 25.2804C33.767 25.2882 33.705 25.2804 33.705 25.2611C33.705 25.2417 33.643 25.2339 33.5694 25.2417C33.4648 25.2533 33.4338 25.2456 33.4338 25.1952C33.4338 25.1603 33.4183 25.1332 33.395 25.1332C33.3757 25.1332 33.3563 25.1526 33.3563 25.1719C33.3563 25.1952 33.3137 25.2107 33.2594 25.2107C33.2052 25.2107 33.1625 25.1952 33.1625 25.1758C33.1625 25.1332 32.9378 25.1564 32.7363 25.2223C32.6627 25.2456 32.562 25.2611 32.5116 25.2533C32.4419 25.2456 32.4264 25.2611 32.4341 25.3347C32.4457 25.4044 32.4302 25.4199 32.3605 25.4122C32.314 25.4044 32.2675 25.4199 32.252 25.4432C32.2404 25.4625 32.2559 25.4819 32.2869 25.4819C32.3217 25.4819 32.3489 25.4935 32.3489 25.5129C32.345 25.5749 32.2404 25.6756 32.1706 25.6795C32.128 25.6795 32.1203 25.6911 32.1474 25.7028C32.2288 25.7338 32.2016 25.8268 32.1164 25.8035C32.0195 25.7764 32.0156 25.8229 32.1086 25.8926C32.1706 25.9391 32.1668 25.943 32.0893 25.9469C32.0389 25.9469 32.0001 25.9662 32.0001 25.9856C32.0001 26.0089 32.0195 26.0244 32.0428 26.0244C32.097 26.0244 32.0428 26.6521 31.9846 26.6947C31.9575 26.7179 31.9691 26.7218 32.0118 26.7063C32.0583 26.6908 32.0776 26.7063 32.0776 26.7606C32.0776 26.8032 32.0621 26.838 32.0389 26.838C32.0195 26.838 32.0001 26.8574 32.0001 26.8768C32.0001 26.9 32.0273 26.9155 32.0583 26.9155C32.128 26.9155 32.1358 26.9775 32.0699 27.0047C32.035 27.0202 32.0428 27.0279 32.0815 27.0279C32.159 27.0318 32.2559 27.2255 32.1823 27.2294C32.159 27.2294 32.1784 27.2488 32.2326 27.2681C32.3101 27.2991 32.3179 27.3146 32.2714 27.3418C32.2249 27.3727 32.2249 27.3805 32.2636 27.3805C32.2946 27.3805 32.4147 27.4696 32.5349 27.5781C32.6588 27.6866 32.9223 27.8726 33.1238 27.9927C33.3253 28.1128 33.4996 28.2213 33.5113 28.2329C33.5965 28.322 34.6659 28.6591 35.1038 28.7328C36.0918 28.9032 37.8083 28.9342 38.5677 28.7948C39.3388 28.6553 40.7182 28.0857 41.3032 27.6672C41.6132 27.4425 42.4153 26.7141 42.6439 26.4506C42.8454 26.2142 43.0701 25.8539 43.2871 25.4199C43.7908 24.4086 43.9884 23.5058 43.8993 22.603C43.8179 21.7932 43.6745 21.2701 43.3491 20.5727C43.2638 20.3983 43.198 20.2395 43.198 20.2201C43.198 20.2007 43.1553 20.1387 43.1011 20.0806C43.0275 19.9992 42.9732 19.9799 42.826 19.9799C42.6478 19.9799 42.6361 19.9876 42.2138 20.4022C41.5551 21.0454 41.0514 21.3321 40.2532 21.5026C39.7572 21.6072 38.7421 21.615 38.1803 21.5142C37.2232 21.3399 36.1887 20.8052 35.313 20.0264C35.1038 19.8404 34.9255 19.7474 34.7744 19.7474C34.724 19.7474 34.5303 19.821 34.3443 19.9101C34.139 20.007 33.9414 20.0729 33.8445 20.0806C33.6275 20.0884 33.6275 20.0884 33.6275 20.1581C33.6275 20.2046 33.6004 20.2123 33.5113 20.193C33.4377 20.1775 33.395 20.1814 33.395 20.2085C33.395 20.2356 33.364 20.2356 33.2982 20.2123C33.2245 20.1852 33.2013 20.1891 33.2013 20.2317C33.2013 20.2976 33.0308 20.3208 32.8681 20.2821C32.7983 20.2627 32.7053 20.2666 32.655 20.286C32.6046 20.3053 32.469 20.3092 32.3605 20.3015C32.1745 20.2821 32.1551 20.2705 32.1551 20.1852C32.1551 20.1349 32.19 20.0109 32.2326 19.9101C32.2714 19.8094 32.3411 19.6311 32.3799 19.5149C32.4496 19.3018 32.4496 19.3018 32.6433 19.2708C33.2517 19.1701 33.4493 19.1236 33.6663 19.0267C34.0227 18.8678 34.0305 18.8058 33.7631 18.4067C33.6469 18.2324 33.55 18.058 33.55 18.0232C33.55 17.9883 33.5345 17.9689 33.519 17.9805C33.4764 18.0077 32.7751 17.0661 32.7751 16.9847C32.7751 16.9731 32.7325 16.915 32.6821 16.8608C32.5891 16.76 32.4651 16.357 32.4651 16.1478C32.4651 16.0858 32.4496 16.0277 32.4264 16.0199C32.407 16.0161 32.3605 15.8921 32.3256 15.7487C32.2869 15.5899 32.2443 15.4969 32.221 15.5124C32.1978 15.5279 32.19 15.5124 32.2055 15.4736C32.2171 15.4349 32.2133 15.4078 32.1939 15.4078C32.1551 15.4078 32.0311 15.1443 31.9846 14.9699C31.973 14.9118 31.942 14.873 31.9227 14.8847C31.8994 14.9002 31.8723 14.8575 31.8607 14.7917C31.8452 14.7258 31.8219 14.6832 31.8025 14.6948C31.7832 14.7064 31.7677 14.6871 31.7677 14.6561C31.7677 14.6212 31.7522 14.5941 31.7289 14.5941C31.7095 14.5941 31.6902 14.5592 31.6902 14.5166C31.6902 14.4623 31.725 14.4352 31.8297 14.4158C31.9963 14.3848 32.2133 14.443 32.2133 14.5166C32.2133 14.5476 32.2559 14.5941 32.3101 14.6212C32.3644 14.6483 32.4031 14.6871 32.3992 14.7103C32.3915 14.7297 32.4109 14.7491 32.438 14.7491C32.5 14.7491 33.4183 16.1323 33.4028 16.2059C33.395 16.2369 33.4183 16.2602 33.4493 16.2602C33.4803 16.2602 33.6663 16.4733 33.8639 16.7329C34.3986 17.442 34.6582 17.7519 35.4137 18.585C36.1228 19.3677 36.363 19.5847 36.8241 19.8559C37.9981 20.5456 39.765 20.7161 40.722 20.2317C41.0088 20.0845 41.4427 19.7125 41.652 19.4413C41.9348 19.0616 42.0123 18.8368 42.0123 18.3913C42.0084 17.9224 41.9038 17.5931 41.5241 16.8995C40.9816 15.8998 40.4159 15.1675 39.641 14.4623C38.6413 13.5518 38.2306 13.2728 37.0179 12.6645C35.9019 12.1027 35.6462 12.029 35.4292 12.1995C35.3324 12.2731 35.3246 12.3003 35.3401 12.4824C35.3595 12.7149 35.3052 12.6335 36.2623 13.916C37.014 14.9234 37.3627 15.2993 38.0214 15.803C38.3352 16.0432 38.4321 16.2021 38.4321 16.4733C38.4321 16.6399 38.4127 16.6903 38.3275 16.7716C38.0873 17.0002 37.8703 17.0119 37.5719 16.8104C36.9559 16.4074 36.177 15.617 35.4796 14.6987C34.5807 13.513 34.201 12.8815 33.7825 11.8818C33.4996 11.2076 33.3795 10.9751 33.1393 10.6535C33.0231 10.4985 32.9301 10.359 32.9301 10.3397C32.9301 10.3242 32.8797 10.2777 32.8138 10.2428C32.7518 10.2041 32.6976 10.1459 32.6976 10.1111C32.6976 10.0762 32.686 10.0607 32.6743 10.0723C32.6356 10.1111 32.5039 10.0258 32.5039 9.95996C32.5039 9.92896 32.4884 9.91346 32.4651 9.92508C32.4457 9.93671 32.4264 9.92121 32.4264 9.88634C32.4264 9.83984 32.4031 9.82822 32.345 9.84759C32.2869 9.86696 32.2598 9.85534 32.2443 9.78947C32.2326 9.7391 32.2016 9.71585 32.1706 9.72748C32.1396 9.7391 32.1164 9.73135 32.1164 9.71198C32.1164 9.68873 32.1048 9.6771 32.0893 9.6771C31.9924 9.6926 31.9227 9.66548 31.9227 9.61124C31.9227 9.58024 31.9072 9.56474 31.8839 9.57636C31.8645 9.58799 31.8452 9.57249 31.8452 9.53762C31.8452 9.49112 31.8219 9.4795 31.7677 9.49887C31.7134 9.51824 31.6902 9.50662 31.6902 9.464C31.6902 9.402 31.6282 9.38263 31.4693 9.39813C31.3879 9.402 31.3879 9.39425 31.3802 8.73943C31.3802 8.37134 31.3686 8.06136 31.3608 8.04199C31.3492 8.02649 31.4228 8.03812 31.5274 8.06911C31.6282 8.10011 31.7173 8.14273 31.7212 8.16211C31.7289 8.18535 31.7522 8.1931 31.7715 8.17761C31.7909 8.16598 31.8645 8.1931 31.9382 8.23573C32.0079 8.28222 32.097 8.31709 32.1319 8.31709C32.1668 8.31709 32.1939 8.33647 32.1939 8.35584C32.1939 8.37909 32.2288 8.39459 32.2714 8.39459C32.314 8.39459 32.3489 8.41396 32.3489 8.43333C32.3489 8.45658 32.376 8.47208 32.4109 8.47208C32.4419 8.47208 32.4574 8.49145 32.4457 8.51083C32.4341 8.53408 32.4612 8.54957 32.5077 8.54957C32.6511 8.54957 33.4996 9.20827 33.4532 9.28576C33.4415 9.30126 33.4841 9.34001 33.5423 9.36713C33.6818 9.43687 33.9375 9.65773 33.9375 9.71198C33.9375 9.73135 33.9569 9.75072 33.9801 9.75072C34.0034 9.75072 34.1545 9.87471 34.3172 10.0258C34.4838 10.1769 34.662 10.3242 34.724 10.3552C34.7822 10.3862 35.1309 10.5102 35.499 10.6264C36.1964 10.855 37.1612 11.227 37.5603 11.4285C37.9362 11.6144 38.8816 12.1801 39.3698 12.5095C39.9897 12.928 40.3927 13.3038 41.0785 14.0981C41.7333 14.8614 42.1828 15.5627 42.8182 16.822C43.3026 17.7868 43.783 18.6896 44.3255 19.6699C44.8021 20.5339 44.8679 20.6851 45.0191 21.2818C45.3949 22.7348 45.1973 24.2885 44.4379 25.8578C43.8954 26.9737 43.1011 27.9694 42.2487 28.6088C41.1909 29.3992 39.4318 29.992 37.6029 30.1664C36.9946 30.2284 35.9639 30.2206 35.9407 30.1625C35.9291 30.1354 35.9174 30.1315 35.9174 30.1509C35.9136 30.1935 35.5261 30.178 35.5261 30.1393C35.5261 30.1238 35.4176 30.1121 35.2859 30.1083C35.1541 30.1083 35.0418 30.0889 35.034 30.0656C35.0263 30.0463 34.9759 30.0347 34.9255 30.0463C34.8674 30.054 34.8287 30.0463 34.8287 30.0192C34.8287 29.992 34.8132 29.9804 34.7938 29.9959C34.7705 30.0075 34.6078 29.9804 34.4257 29.9339L34.0963 29.8525L33.9297 29.9339C33.8367 29.9765 33.6508 30.1083 33.5151 30.2206C33.3408 30.3717 33.2439 30.426 33.1858 30.4144C33.1238 30.3989 33.1161 30.4066 33.1587 30.4337C33.2013 30.4647 33.1819 30.4996 33.0657 30.6004C32.9727 30.6817 32.8874 30.7282 32.8371 30.7205C32.7712 30.7088 32.7673 30.7166 32.8022 30.7553C32.8642 30.8173 32.6782 30.9684 32.5542 30.953C32.4806 30.9413 32.4651 30.9568 32.4729 31.0304C32.4806 31.1002 32.4651 31.1157 32.407 31.1118C32.3644 31.1041 32.2946 31.1273 32.2559 31.1583C32.1978 31.2048 32.19 31.2242 32.2288 31.2707C32.2675 31.3172 32.2598 31.3365 32.1861 31.3753C32.1358 31.4024 32.0738 31.4218 32.0466 31.414C31.9769 31.4024 31.88 31.4877 31.9072 31.5342C31.9188 31.5535 31.8994 31.6039 31.8645 31.6426C31.8142 31.7008 31.7793 31.7085 31.725 31.6814C31.6785 31.6543 31.6476 31.6543 31.6321 31.6814C31.6204 31.7008 31.6359 31.7201 31.6669 31.7201C31.7018 31.7201 31.7289 31.7356 31.7289 31.755C31.7289 31.8015 31.6088 31.8519 31.5197 31.8403C31.4809 31.8325 31.4344 31.8519 31.4151 31.8829C31.3996 31.91 31.3802 31.5961 31.3724 31.1854Z" fill="#F9ADA0"/>
<path d="M25.9599 25.1739C25.9211 25.1545 25.9289 25.139 25.9754 25.1196C26.0645 25.0886 26.111 25.0886 26.111 25.1312C26.111 25.1816 26.0141 25.2087 25.9599 25.1739Z" fill="#F9ADA0"/>
<path d="M25.9949 19.4334V13.8268L26.3707 13.7996C27.0837 13.7454 27.6842 13.8423 28.3313 14.1135C29.2806 14.5087 30.0207 15.2139 30.4895 16.1632C30.7685 16.725 30.8653 17.0815 30.9235 17.775C30.9622 18.2323 30.9622 18.3562 30.9041 18.6972C30.629 20.375 29.2845 22.3665 27.1379 24.2768C26.4831 24.8618 26.3746 24.9393 26.2971 24.8967C26.2545 24.8735 26.2235 24.8735 26.208 24.9006C26.1964 24.9199 26.2119 24.9393 26.2467 24.9393C26.3785 24.9393 26.2738 25.0323 26.1382 25.0401L25.9949 25.0439V19.4334Z" fill="#F9ADA0"/>
<path d="M26.2856 35.8708C26.274 35.8514 26.2895 35.832 26.3205 35.832C26.3515 35.832 26.3902 35.8514 26.4018 35.8708C26.4135 35.894 26.398 35.9095 26.367 35.9095C26.336 35.9095 26.2972 35.894 26.2856 35.8708Z" fill="#F9ADA0"/>
<path d="M10.5352 27.6901C10.5352 27.6398 10.6126 27.6398 10.6901 27.6901C10.7366 27.7211 10.725 27.7289 10.6436 27.7289C10.5817 27.7289 10.5352 27.7134 10.5352 27.6901Z" fill="#F9ADA0"/>
<path d="M4.69583 26.9378C4.69583 26.8525 4.70358 26.8215 4.71133 26.8719C4.71908 26.9184 4.71908 26.9882 4.71133 27.0269C4.69971 27.0618 4.69196 27.023 4.69583 26.9378Z" fill="#F9ADA0"/>
<path d="M3.64198 25.4328C3.61098 25.3941 3.6071 25.3708 3.6381 25.3515C3.65747 25.3398 3.68847 25.3553 3.7001 25.3902C3.73497 25.4755 3.69622 25.5026 3.64198 25.4328Z" fill="#F9ADA0"/>
<path d="M4.62615 25.058C4.5874 25.0153 4.5719 24.9805 4.59515 24.9805C4.61452 24.9805 4.6649 25.0153 4.70364 25.058C4.74239 25.1006 4.75789 25.1355 4.73464 25.1355C4.71527 25.1355 4.6649 25.1006 4.62615 25.058Z" fill="#F9ADA0"/>
<path d="M3.14223 24.6699C3.11899 24.6272 3.11124 24.5885 3.13061 24.573C3.14998 24.5614 3.18098 24.5885 3.1926 24.635C3.22748 24.7435 3.20035 24.7629 3.14223 24.6699Z" fill="#F9ADA0"/>
<path d="M2.89033 24.1858C2.83221 24.0695 2.80121 23.9727 2.81671 23.9727C2.85546 23.9727 3.03757 24.3524 3.01432 24.3795C3.0027 24.3872 2.94845 24.302 2.89033 24.1858Z" fill="#F9ADA0"/>
<path d="M8.28784 24.0466C8.28784 24.0272 8.31496 24.0078 8.34596 24.0078C8.37696 24.0078 8.40408 24.0272 8.40408 24.0466C8.40408 24.0698 8.37696 24.0853 8.34596 24.0853C8.31496 24.0853 8.28784 24.0698 8.28784 24.0466Z" fill="#F9ADA0"/>
<path d="M8.44263 24.0114C8.44263 23.992 8.46975 23.9727 8.50075 23.9727C8.53174 23.9727 8.55887 23.992 8.55887 24.0114C8.55887 24.0347 8.53174 24.0501 8.50075 24.0501C8.46975 24.0501 8.44263 24.0347 8.44263 24.0114Z" fill="#F9ADA0"/>
<path d="M2.5801 23.4428C2.03765 22.0092 1.94465 20.3314 2.3205 18.8397C2.42511 18.4212 2.60722 17.9098 2.67309 17.8323C2.69634 17.8129 2.70796 19.0179 2.70796 20.7189C2.70796 22.3269 2.71959 23.683 2.73121 23.7334C2.78933 23.9388 2.71184 23.7915 2.5801 23.4428Z" fill="#F9ADA0"/>
<path d="M3.8126 23.7376C3.79711 23.7143 3.79323 23.6872 3.80485 23.6756C3.83198 23.6485 3.90947 23.6988 3.90947 23.7453C3.90947 23.7918 3.8436 23.7918 3.8126 23.7376Z" fill="#F9ADA0"/>
<path d="M3.67676 23.4294C3.67676 23.41 3.70388 23.3906 3.73488 23.3906C3.76588 23.3906 3.793 23.41 3.793 23.4294C3.793 23.4526 3.76588 23.4681 3.73488 23.4681C3.70388 23.4681 3.67676 23.4526 3.67676 23.4294Z" fill="#F9ADA0"/>
<path d="M3.56079 23.1208C3.56079 23.1014 3.58791 23.082 3.61891 23.082C3.64991 23.082 3.67703 23.1014 3.67703 23.1208C3.67703 23.144 3.64991 23.1595 3.61891 23.1595C3.58791 23.1595 3.56079 23.144 3.56079 23.1208Z" fill="#F9ADA0"/>
<path d="M3.52197 23.0036C3.52197 22.9842 3.5491 22.9648 3.58009 22.9648C3.61109 22.9648 3.63821 22.9842 3.63821 23.0036C3.63821 23.0268 3.61109 23.0423 3.58009 23.0423C3.5491 23.0423 3.52197 23.0268 3.52197 23.0036Z" fill="#F9ADA0"/>
<path d="M3.48315 22.8903C3.48315 22.8709 3.51028 22.8516 3.54127 22.8516C3.57227 22.8516 3.59939 22.8709 3.59939 22.8903C3.59939 22.9136 3.57227 22.9291 3.54127 22.9291C3.51028 22.9291 3.48315 22.9136 3.48315 22.8903Z" fill="#F9ADA0"/>
<path d="M3.44434 22.7692C3.44434 22.7498 3.47146 22.7305 3.50246 22.7305C3.53345 22.7305 3.56058 22.7498 3.56058 22.7692C3.56058 22.7925 3.53345 22.808 3.50246 22.808C3.47146 22.808 3.44434 22.7925 3.44434 22.7692Z" fill="#F9ADA0"/>
<path d="M3.36694 22.4997C3.36694 22.4803 3.39407 22.4609 3.42506 22.4609C3.45606 22.4609 3.48318 22.4803 3.48318 22.4997C3.48318 22.5229 3.45606 22.5384 3.42506 22.5384C3.39407 22.5384 3.36694 22.5229 3.36694 22.4997Z" fill="#F9ADA0"/>
<path d="M3.32812 22.3434C3.32812 22.3241 3.35525 22.3047 3.38625 22.3047C3.41724 22.3047 3.44437 22.3241 3.44437 22.3434C3.44437 22.3667 3.41724 22.3822 3.38625 22.3822C3.35525 22.3822 3.32812 22.3667 3.32812 22.3434Z" fill="#F9ADA0"/>
<path d="M3.28979 22.1481C3.28979 22.1287 3.31692 22.1094 3.34792 22.1094C3.37891 22.1094 3.40604 22.1287 3.40604 22.1481C3.40604 22.1714 3.37891 22.1869 3.34792 22.1869C3.31692 22.1869 3.28979 22.1714 3.28979 22.1481Z" fill="#F9ADA0"/>
<path d="M3.17285 21.4489C3.17285 21.4256 3.19997 21.383 3.23097 21.352C3.28134 21.2977 3.28909 21.3016 3.28909 21.3907C3.28909 21.4527 3.26584 21.4915 3.23097 21.4915C3.19997 21.4915 3.17285 21.4721 3.17285 21.4489Z" fill="#F9ADA0"/>
<path d="M3.25035 20.2562C3.25035 20.2136 3.23485 20.1787 3.2116 20.1787C3.19222 20.1787 3.17285 20.1516 3.17285 20.1206C3.17285 20.0896 3.19997 20.0625 3.23097 20.0625C3.26972 20.0625 3.28909 20.1051 3.28909 20.1981C3.28909 20.2717 3.28134 20.3337 3.26972 20.3337C3.25809 20.3337 3.25035 20.2989 3.25035 20.2562Z" fill="#F9ADA0"/>
<path d="M16.0953 20.02C16.0798 19.9735 16.0759 19.927 16.0876 19.9154C16.0992 19.9076 16.1186 19.9347 16.1341 19.9812C16.1496 20.0277 16.1534 20.0742 16.1418 20.0859C16.1302 20.0936 16.1108 20.0665 16.0953 20.02Z" fill="#F9ADA0"/>
<path d="M3.26246 19.8743C3.19272 19.8472 3.20047 19.7852 3.27021 19.7852C3.30121 19.7852 3.32833 19.8123 3.32833 19.8433C3.32833 19.8743 3.32446 19.9014 3.32058 19.8975C3.31283 19.8975 3.28571 19.8859 3.26246 19.8743Z" fill="#F9ADA0"/>
<path d="M3.29693 19.6484C3.23494 19.5826 3.23881 19.5554 3.30856 19.5554C3.33956 19.5554 3.36668 19.5399 3.36668 19.5167C3.36668 19.4973 3.35118 19.4779 3.32793 19.4779C3.25819 19.4779 3.28531 19.4004 3.35893 19.3966C3.39768 19.3966 3.40543 19.385 3.3783 19.3733C3.30468 19.3462 3.31631 19.2842 3.39768 19.2803C3.43642 19.2803 3.44417 19.2687 3.41705 19.2571C3.34731 19.23 3.35505 19.168 3.4248 19.168C3.49454 19.168 3.49454 19.1718 3.41318 19.4624C3.35893 19.6562 3.33956 19.691 3.29693 19.6484Z" fill="#F9ADA0"/>
<path d="M15.8474 19.3441C15.8009 19.1853 15.7699 19.038 15.7854 19.0148C15.797 18.9954 15.7931 18.976 15.7738 18.976C15.7544 18.976 15.7156 18.8288 15.6885 18.6467C15.6381 18.3135 15.6536 17.6509 15.7273 17.3293C15.7893 17.0426 15.8009 16.9883 15.8241 16.9689C15.8358 16.9573 15.8435 17.461 15.8435 18.0926C15.8435 19.0419 15.8551 19.2628 15.9055 19.4177C15.9404 19.5185 15.9597 19.6076 15.952 19.6192C15.9404 19.627 15.8939 19.5069 15.8474 19.3441Z" fill="#F9ADA0"/>
<path d="M3.49464 19.0618C3.4249 19.0347 3.43264 18.9727 3.50239 18.9727C3.53339 18.9727 3.56051 18.9998 3.56051 19.0308C3.56051 19.0618 3.55663 19.0889 3.55276 19.085C3.54501 19.085 3.51789 19.0734 3.49464 19.0618Z" fill="#F9ADA0"/>
<path d="M3.63816 18.7022C3.59166 18.6712 3.59553 18.6634 3.65753 18.6634C3.7234 18.6634 3.7234 18.6557 3.6769 18.6247C3.62653 18.5937 3.63041 18.5859 3.68853 18.5859C3.75827 18.5859 3.76989 18.6169 3.7234 18.6906C3.70402 18.7216 3.67303 18.7254 3.63816 18.7022Z" fill="#F9ADA0"/>
<path d="M3.88233 18.2844C3.81259 18.2573 3.82034 18.1953 3.89008 18.1953C3.92108 18.1953 3.9482 18.2224 3.9482 18.2534C3.9482 18.2844 3.94433 18.3116 3.94045 18.3077C3.93271 18.3077 3.90558 18.2961 3.88233 18.2844Z" fill="#F9ADA0"/>
<path d="M4.61058 16.9984C4.56796 16.9752 4.57958 16.9635 4.64933 16.9519C4.71132 16.9442 4.74232 16.9171 4.73844 16.8706C4.73457 16.8357 4.75394 16.8047 4.78494 16.8047C4.86243 16.8047 4.85081 16.8589 4.75007 16.9519C4.69195 17.0062 4.64545 17.0217 4.61058 16.9984Z" fill="#F9ADA0"/>
</svg>
