<svg width="48" height="48" viewBox="0 0 48 48" fill="none" xmlns="http://www.w3.org/2000/svg">
<path d="M16.268 37.4343C16.2554 37.4217 16.2427 37.0472 16.2427 36.6013V35.7936L16.6358 35.6254C16.8471 35.5328 17.1007 35.436 17.1937 35.4066C17.3839 35.3477 19.1846 34.3633 19.4129 34.195C19.658 34.0099 20.2456 33.4378 20.4865 33.1391C21.0275 32.4745 20.9895 32.2305 20.2752 31.8014C19.7383 31.4859 19.6242 31.3765 19.6242 31.183C19.6242 30.8633 19.7806 30.6487 20.0723 30.5688C20.2413 30.5225 20.2836 30.5267 20.4992 30.6066C20.6344 30.6571 21.0867 30.9011 21.5052 31.1451C23.2805 32.1842 23.289 32.1884 23.9272 32.4198C25.0896 32.8447 25.8124 32.9919 26.9156 33.0382C28.9868 33.1181 30.9862 32.4661 32.3472 31.2629C32.66 30.9853 32.6643 30.9853 32.6769 31.0946C32.6896 31.1788 32.6558 31.2503 32.5544 31.3513C32.4783 31.4312 32.398 31.4943 32.3811 31.4943C32.3641 31.4943 32.3092 31.5321 32.2627 31.5784C32.1866 31.6541 32.1782 31.7172 32.1782 32.201V32.7395L32.3261 32.7227C32.4318 32.71 32.474 32.6848 32.474 32.6301C32.474 32.5376 32.5501 32.4745 32.6854 32.4534C32.7615 32.445 32.7953 32.4114 32.8037 32.3356C32.8207 32.2221 32.9221 32.1295 33.0362 32.1253C33.0785 32.1253 33.1081 32.0916 33.1081 32.0412C33.1081 31.9739 33.1377 31.957 33.256 31.957C33.3871 31.957 33.4082 31.9444 33.4336 31.8308C33.4547 31.7172 33.4716 31.7046 33.6153 31.7046C33.7717 31.7046 33.7802 31.6962 33.8055 31.5363C33.8309 31.3849 33.8478 31.3681 33.9535 31.3681C34.0211 31.3681 34.0803 31.347 34.0887 31.3218C34.0972 31.2966 34.1648 31.2839 34.2409 31.2924C34.3762 31.305 34.3719 31.3092 33.8436 31.7677C33.5477 32.0243 33.1123 32.3987 32.8798 32.6049C32.2247 33.177 31.8316 33.4546 31.3159 33.7028C29.9083 34.3886 28.2598 34.5821 26.1548 34.3128C25.0769 34.174 23.6947 33.8585 22.9423 33.5724C22.5873 33.442 22.1477 33.3705 22.0378 33.4294C21.9913 33.4504 21.9067 33.5598 21.8391 33.6692C21.2981 34.5989 20.0173 35.6548 18.6647 36.29C18.4153 36.4078 18.1321 36.5424 18.0391 36.5845C17.9461 36.6308 17.7052 36.7233 17.5023 36.7948C17.2994 36.8706 16.9443 37.0472 16.7119 37.1945C16.4794 37.3417 16.2807 37.4469 16.268 37.4343Z" fill="#F9ADA0"/>
<path d="M36.7219 31.2504C36.4387 31.2251 36.3203 31.1915 36.3203 31.141C36.3203 31.1074 36.3499 31.0695 36.3879 31.0569C36.4936 31.0148 36.7007 31.0274 36.7007 31.0737C36.7007 31.0989 36.7853 31.1074 36.9332 31.0905C37.1657 31.0611 37.1657 31.0611 37.1657 31.1747C37.1657 31.2967 37.1784 31.2925 36.7219 31.2504Z" fill="#FABFAF"/>
<path d="M35.7203 31.092C35.2722 30.9742 35.4878 30.8564 35.995 30.9363C36.1261 30.9616 36.1514 30.9826 36.1514 31.0625C36.1514 31.1803 36.0838 31.1887 35.7203 31.092Z" fill="#FABFAF"/>
<path d="M27.7821 30.8173C27.3045 30.75 26.4253 30.3882 25.6348 29.9339C25.1614 29.6605 24.464 29.2103 24.4259 29.1472C24.4048 29.1136 25.246 28.5078 25.3094 28.5078C25.3263 28.5078 25.4658 28.5835 25.6221 28.6761C26.0322 28.9201 26.5267 29.1052 27.5116 29.3912C27.9892 29.5301 28.4415 29.6689 28.5218 29.7025C28.7036 29.7783 28.8008 29.9634 28.8304 30.2831C28.8473 30.5102 28.8431 30.5397 28.7332 30.6533C28.5556 30.8384 28.264 30.8889 27.7821 30.8173Z" fill="#F9ADA0"/>
<path d="M33.2224 30.4284C33.3746 30.2433 33.4042 30.2433 33.4042 30.4242C33.4042 30.5672 33.3957 30.5714 33.252 30.5714H33.0999L33.2224 30.4284Z" fill="#FABFAF"/>
<path d="M33.2393 29.9283C33.2181 29.8736 33.0913 29.7474 32.9603 29.6464C32.5714 29.3477 32.2713 28.9902 32.0726 28.5737C31.8148 28.0478 31.7387 27.6566 31.7767 27.0298C31.8021 26.5965 31.7979 26.5208 31.726 26.4072C31.6161 26.2179 31.3033 26.0286 30.6566 25.7593C30.1156 25.5322 29.5703 25.2419 29.4773 25.1283C29.4435 25.0905 29.5534 24.96 29.8746 24.6403L30.31 24.207L30.6439 24.4174C31.3456 24.8675 32.0092 25.1451 32.377 25.1451C32.5291 25.1451 32.5587 25.1578 32.5587 25.2293C32.5587 25.3008 32.5291 25.3134 32.3685 25.3134H32.1783V26.8531C32.1783 28.1614 32.1868 28.4012 32.2417 28.4517C32.2755 28.4895 32.3051 28.5821 32.3051 28.662C32.3051 28.763 32.3262 28.8051 32.3685 28.8051C32.4023 28.8051 32.4319 28.8387 32.4319 28.885C32.4319 28.9397 32.47 28.9691 32.5587 28.9902C32.6475 29.007 32.6855 29.0364 32.6855 29.0995C32.6855 29.1458 32.7151 29.1837 32.7532 29.1837C32.8292 29.1837 32.9391 29.2804 32.9391 29.3477C32.9391 29.373 32.9645 29.394 32.9941 29.394C33.0279 29.394 33.0955 29.4319 33.1505 29.4781C33.2054 29.5244 33.2646 29.5623 33.2858 29.5623C33.3027 29.5623 33.3196 29.6001 33.3196 29.6464C33.3196 29.6927 33.3407 29.7305 33.3618 29.7305C33.3872 29.7305 33.4041 29.7979 33.4041 29.8778C33.4041 30.0503 33.2984 30.0839 33.2393 29.9283Z" fill="#F9ADA0"/>
<path d="M34.25 29.1809V29.0547L34.4191 29.1388C34.5121 29.1851 34.5882 29.244 34.5882 29.265C34.5882 29.2903 34.5121 29.3071 34.4191 29.3071C34.2585 29.3071 34.25 29.2987 34.25 29.1809Z" fill="#FABFAF"/>
<path d="M32.9516 28.3659C32.8966 28.3406 32.8544 28.2985 32.8544 28.2691C32.8544 28.2397 32.8375 28.2144 32.8121 28.2144C32.791 28.2144 32.7698 28.1597 32.7698 28.0882C32.7698 28.0083 32.7487 27.962 32.7107 27.962C32.6726 27.962 32.6346 27.8821 32.605 27.7517C32.5374 27.4362 32.5458 27.3394 32.6473 27.31C32.7572 27.2721 32.7698 27.2847 32.7994 27.4824C32.829 27.6886 33.0277 28.1092 33.1756 28.2901L33.2897 28.4248L33.1672 28.4205C33.0995 28.4163 33.0023 28.3953 32.9516 28.3659Z" fill="#FABFAF"/>
<path d="M18.4617 28.2053C18.0052 28.1717 17.1344 28.0455 16.4919 27.9151L16.251 27.8646L16.2341 27.3976C16.2214 27.141 16.2129 26.9265 16.2172 26.9223C16.2214 26.9181 16.4243 26.9475 16.6652 26.9896C17.2866 27.1032 18.0305 27.1621 18.766 27.1621H19.3916L19.6875 27.3976C19.8523 27.5281 20.1397 27.7468 20.3342 27.8898C20.5244 28.0329 20.6808 28.1591 20.6808 28.1759C20.6808 28.2516 19.3366 28.2684 18.4617 28.2053Z" fill="#F9ADA0"/>
<path d="M22.4265 27.4404C22.0038 27.1544 21.3994 26.7295 21.0824 26.4939L20.5117 26.069V19.8051V13.537L20.7357 13.6001C21.56 13.8441 22.4223 14.3868 22.9929 15.0304L23.2254 15.2912L23.6312 14.8832C24.4216 14.0923 25.4445 13.5707 26.3998 13.4697C26.6703 13.4402 26.683 13.4445 26.683 13.5286C26.683 13.6043 26.6577 13.6169 26.4928 13.6169H26.3026V19.4896V25.3623L26.5773 25.3328C26.7295 25.316 26.8521 25.3118 26.8521 25.3286C26.8521 25.3665 25.6728 26.2962 25.0768 26.7253C24.4428 27.1796 23.2761 27.9621 23.2296 27.9621C23.2085 27.9579 22.8492 27.7223 22.4265 27.4404Z" fill="#F9ADA0"/>
<path d="M32.6476 26.8714C32.6011 26.842 32.5969 26.7789 32.6138 26.6106C32.6307 26.4844 32.6603 26.3792 32.6857 26.3708C32.7068 26.3624 32.7279 26.3287 32.7279 26.2951C32.7279 26.2614 32.7533 26.2362 32.7871 26.2362C32.8252 26.2362 32.8548 26.1857 32.8632 26.1016C32.8717 25.9964 32.897 25.9585 32.9731 25.9501C33.0323 25.9417 33.0661 25.9081 33.0661 25.8534C33.0661 25.7819 33.0957 25.7734 33.3197 25.7734C33.4592 25.7734 33.5733 25.7903 33.5733 25.8155C33.5733 25.8407 33.5564 25.8576 33.5353 25.8576C33.5184 25.8576 33.4127 25.9333 33.307 26.0258C33.0957 26.2152 32.9351 26.4634 32.8548 26.7326C32.7998 26.9093 32.7575 26.9387 32.6476 26.8714Z" fill="#FABFAF"/>
<path d="M36.6503 26.1653C36.608 26.1569 36.5742 26.1232 36.5742 26.0895C36.5742 26.0222 36.6672 25.9844 36.8321 25.9844C36.9335 25.9844 36.9546 26.0012 36.9546 26.0895C36.9546 26.1779 36.9335 26.1947 36.8405 26.1905C36.7729 26.1863 36.6883 26.1779 36.6503 26.1653Z" fill="#FABFAF"/>
<path d="M36.1432 26.1223C36.101 26.1139 36.0671 26.0802 36.0671 26.0466C36.0671 25.9877 36.1939 25.9414 36.3757 25.9414C36.4687 25.9414 36.4898 25.9582 36.4898 26.0466C36.4898 26.1391 36.4729 26.1517 36.3546 26.1475C36.2785 26.1433 36.1813 26.1349 36.1432 26.1223Z" fill="#FABFAF"/>
<path d="M34.926 25.9839C34.6132 25.9419 34.2624 25.8956 34.1441 25.883C33.734 25.8325 33.658 25.8114 33.658 25.7568C33.658 25.7231 33.7002 25.6894 33.7552 25.6726C33.9031 25.6348 34.4188 25.6432 34.4188 25.6852C34.4188 25.7063 34.5541 25.7357 34.7147 25.7525C34.8795 25.7694 35.0106 25.7946 35.0106 25.8114C35.0106 25.8241 35.0867 25.8325 35.1796 25.8241C35.2726 25.8156 35.3487 25.8241 35.3487 25.8451C35.3487 25.8661 35.4248 25.8745 35.5178 25.8661C35.6742 25.8493 35.6869 25.8577 35.6869 25.9587C35.6869 26.0891 35.708 26.0891 34.926 25.9839Z" fill="#FABFAF"/>
<path d="M32.6858 25.1412C32.6858 25.095 33.2437 24.8047 33.341 24.8047C33.4255 24.8047 33.4213 24.9561 33.3367 24.9898C33.2987 25.0024 33.2226 25.015 33.1677 25.015C33.1085 25.015 33.0662 25.0403 33.0662 25.0739C33.0662 25.1076 33.0366 25.1454 32.9986 25.1581C32.8929 25.2001 32.6858 25.1875 32.6858 25.1412Z" fill="#FABFAF"/>
<path d="M33.2349 20.4817C33.2349 20.3723 33.4378 20.3218 33.721 20.3639C33.8774 20.3891 33.9112 20.3807 33.9112 20.3302C33.9112 20.2797 33.9577 20.2629 34.1267 20.2629C34.2578 20.2629 34.3635 20.2377 34.4015 20.1998C34.4395 20.162 34.5452 20.1367 34.6551 20.1367C34.8073 20.1367 34.8411 20.1493 34.8411 20.2124C34.8411 20.3555 34.3212 20.5027 33.6914 20.5406C33.2475 20.57 33.2349 20.5658 33.2349 20.4817Z" fill="#FABFAF"/>
<path d="M32.8127 20.4961C32.8127 20.4372 32.948 20.2227 32.9818 20.2227C33.0072 20.2227 33.0241 20.29 33.0241 20.3699C33.0241 20.5003 33.0114 20.5171 32.9184 20.5171C32.8592 20.5171 32.8127 20.5087 32.8127 20.4961Z" fill="#FABFAF"/>
<path d="M33.0829 19.7864L33.214 19.3909L33.3746 19.3867C33.5014 19.3867 33.531 19.3993 33.531 19.4709C33.531 19.5297 33.5014 19.555 33.4422 19.555C33.3915 19.555 33.345 19.5886 33.3323 19.6391C33.3196 19.6854 33.2943 19.7233 33.2732 19.7233C33.252 19.7233 33.2351 19.7695 33.2351 19.8242C33.2351 20.0177 33.1463 20.186 33.0449 20.186H32.9519L33.0829 19.7864Z" fill="#FABFAF"/>
<path d="M34.3637 18.0757L34.165 17.7812H34.2918C34.3595 17.7812 34.4187 17.8023 34.4187 17.8233C34.4187 17.8486 34.4482 17.8654 34.4821 17.8654C34.5201 17.8654 34.5455 17.9032 34.5455 17.9706C34.5455 18.0295 34.5666 18.0757 34.5877 18.0757C34.6131 18.0757 34.63 18.143 34.63 18.223C34.63 18.3029 34.6173 18.3702 34.6004 18.3702C34.5793 18.366 34.4778 18.2356 34.3637 18.0757Z" fill="#FABFAF"/>
<path d="M33.5438 16.9294C33.4424 16.7864 33.3621 16.6517 33.3621 16.6349C33.3621 16.6181 33.4086 16.6055 33.4677 16.6055C33.5354 16.6055 33.5734 16.6307 33.5734 16.6686C33.5734 16.7022 33.603 16.7317 33.6368 16.7317C33.6706 16.7317 33.7002 16.7695 33.7002 16.8158C33.7002 16.8621 33.7213 16.8999 33.7425 16.8999C33.7678 16.8999 33.7848 16.9673 33.7848 17.0472C33.7848 17.1271 33.7721 17.1944 33.7552 17.1944C33.734 17.1944 33.641 17.0724 33.5438 16.9294Z" fill="#FABFAF"/>
<path d="M34.3344 16.3567C34.3344 16.2936 34.3048 16.2725 34.2287 16.2725C34.1315 16.2725 34.123 16.2599 34.123 16.0538C34.123 15.8392 34.123 15.835 34.1991 15.915C34.2414 15.9612 34.3513 16.1001 34.4358 16.2221L34.5965 16.4408H34.4654C34.364 16.4408 34.3344 16.424 34.3344 16.3567Z" fill="#FABFAF"/>
<path d="M33.1509 15.8589C33.0325 15.4761 32.7493 14.8787 32.5041 14.5043C32.3393 14.2477 32.3351 14.2351 32.4111 14.1804C32.5549 14.0752 32.6352 14.1089 32.6648 14.2898C32.6817 14.3823 32.7197 14.4707 32.7493 14.4875C32.8042 14.5211 32.9184 14.7862 32.9691 14.9965C32.9818 15.047 33.0156 15.0891 33.0452 15.0891C33.1128 15.0891 33.1804 15.2784 33.2185 15.556C33.2354 15.6906 33.265 15.7622 33.303 15.7622C33.3453 15.7622 33.3622 15.821 33.3622 15.9725C33.3622 16.2922 33.2692 16.2417 33.1509 15.8589Z" fill="#FABFAF"/>
<path d="M33.1508 14.6694C33.1508 14.6484 33.1212 14.6274 33.0873 14.6274C33.0535 14.6274 33.0239 14.6021 33.0239 14.5685C33.0239 14.539 32.9859 14.5012 32.9352 14.4885C32.8887 14.4759 32.838 14.4254 32.8253 14.3792C32.8126 14.3287 32.7746 14.2908 32.745 14.2908C32.7112 14.2908 32.6858 14.253 32.6858 14.2067C32.6858 14.0048 33.0239 14.1814 33.2649 14.5138L33.4128 14.7115H33.2818C33.2099 14.7115 33.1508 14.6947 33.1508 14.6694Z" fill="#FABFAF"/>
<path d="M17.9212 11.3844C17.7225 10.3664 17.0504 9.31046 16.3826 8.97392C16.2262 8.8982 16.1586 8.8393 16.1586 8.78041C16.1586 8.73413 16.1797 8.69627 16.2008 8.69627C16.2262 8.69627 16.2431 8.4649 16.2431 8.08629C16.2431 7.70768 16.26 7.4763 16.2854 7.4763C16.3107 7.4763 16.3276 7.43844 16.3276 7.39217C16.3276 7.34589 16.3107 7.30803 16.2854 7.30803C16.26 7.30803 16.2431 7.04721 16.2431 6.61391C16.2431 5.94924 16.2389 5.91979 16.1586 5.91979C16.0275 5.91979 16.0571 5.83986 16.2135 5.77255C16.6024 5.61269 17.9804 5.3056 18.961 5.16257C19.9247 5.02374 20.7067 4.98168 21.8395 5.00692C23.2936 5.04057 24.2362 5.17939 25.5888 5.56221C26.8442 5.91558 28.5012 6.59708 28.89 6.9168C29.2662 7.2281 29.3043 7.24072 29.6002 7.13976C30.1285 6.96307 31.1979 6.99252 32.0518 7.20707C32.466 7.31224 33.4086 7.74554 33.4382 7.8465C33.4509 7.88015 33.3959 7.89698 33.2691 7.89698C33.1339 7.89698 33.0705 7.87595 33.024 7.81285C32.9901 7.76657 32.931 7.72871 32.8887 7.72871C32.8464 7.72871 32.8126 7.71188 32.8126 7.68664C32.8126 7.66561 32.7788 7.64457 32.7365 7.64457C32.6943 7.64457 32.6224 7.61513 32.5759 7.58147C32.5336 7.54782 32.4533 7.51837 32.4026 7.51837C32.3434 7.51837 32.3054 7.49313 32.3054 7.45527C32.3054 7.42161 32.2758 7.39217 32.242 7.39217C32.187 7.39217 32.1786 7.4763 32.1786 7.9096C32.1786 8.19146 32.1955 8.44386 32.2124 8.4691C32.2293 8.49435 32.3054 8.53221 32.3815 8.54903C32.4533 8.56165 32.5167 8.59531 32.5167 8.61634C32.5167 8.63738 32.5463 8.6542 32.5844 8.6542C32.6562 8.6542 32.7703 8.75096 32.7703 8.81406C32.7703 8.8351 32.8464 8.86454 32.9352 8.88137C33.0282 8.89399 33.1296 8.93606 33.1677 8.96971C33.2015 9.00337 33.2395 9.03281 33.2564 9.03281C33.3072 9.03281 33.4044 9.15481 33.4044 9.21791C33.4044 9.25998 33.4424 9.28522 33.5101 9.28522C33.5819 9.28522 33.6157 9.30626 33.6157 9.36094C33.6157 9.39881 33.6707 9.4577 33.7425 9.48715C33.8313 9.52922 33.8693 9.57549 33.8693 9.64701C33.8693 9.71011 33.8947 9.74797 33.9328 9.74797C33.9792 9.74797 33.9962 9.79424 33.9962 9.89521V10.0467L33.6495 9.69328C33.2818 9.32729 32.6435 8.91082 32.1701 8.72993C31.3417 8.41862 30.1328 8.406 29.4099 8.70889C28.6406 9.0244 27.9982 9.75638 27.7995 10.5473C27.7445 10.7576 27.7361 10.9259 27.753 11.2624L27.7784 11.7041L27.2373 11.7125L26.692 11.7167L26.6667 11.5274C26.599 11.0226 26.4976 10.8754 26.0791 10.6651C25.238 10.2444 23.8854 9.99617 22.668 10.0424C22.4017 10.0509 22.0255 10.0593 21.8311 10.0593L21.476 10.0635L21.3323 9.90783C21.214 9.77321 21.1886 9.71852 21.1886 9.55446C21.1886 9.32729 21.3112 9.10012 21.476 9.01599C22.1396 8.67524 24.5152 8.87716 25.8805 9.38198C26.1975 9.49977 26.7301 9.60073 26.8653 9.56287C26.9203 9.55025 27.0133 9.44508 27.0936 9.31888C27.1655 9.19688 27.3683 8.90661 27.5417 8.67944C27.8925 8.2209 27.9221 8.1578 27.8502 8.01898C27.7868 7.89277 27.1485 7.51837 26.6709 7.32906C25.0435 6.67701 23.9868 6.50874 21.4845 6.50874C19.9797 6.50874 19.1385 6.55081 18.589 6.65598C17.8324 6.79901 16.5982 7.11031 16.5221 7.17762C16.4629 7.23231 16.4502 7.28279 16.4713 7.42582C16.5094 7.69506 16.6193 7.81705 17.0631 8.08208C17.5957 8.39759 17.9254 8.70889 18.2467 9.19688C18.6313 9.78162 18.9906 10.7239 19.1343 11.519L19.1597 11.6705L18.6229 11.721C18.3227 11.7462 18.0649 11.7672 18.0395 11.7672C18.0184 11.7672 17.9635 11.5948 17.9212 11.3844Z" fill="#F9ADA0"/>
<path d="M34.7145 9.13883C34.7145 9.10518 34.6976 9.07573 34.6723 9.07573C34.6511 9.07573 34.63 9.02104 34.63 8.94953C34.63 8.83174 34.6173 8.82332 34.4736 8.82332C34.2538 8.81912 34.165 8.74339 34.165 8.55409V8.39844L34.2834 8.48257C34.3468 8.53305 34.5497 8.70974 34.7357 8.88643L35.0738 9.19773L34.8963 9.20193C34.761 9.20193 34.7145 9.18511 34.7145 9.13883Z" fill="#FABFAF"/>
<path d="M10.0718 41.9942C9.65754 41.847 9.17145 41.3716 8.99392 40.9299C8.83329 40.5387 8.83329 40.2021 8.98969 39.5711C9.10804 39.0789 9.16299 38.8938 9.7928 36.8787C9.99147 36.2435 10.1944 35.5536 10.2451 35.3433C10.5029 34.2621 10.2113 33.9887 8.04286 33.2399C5.98012 32.5289 5.12206 32.0788 4.31894 31.2837C3.68068 30.6569 3.33407 30.0595 3.1185 29.2014C3.01705 28.8101 2.92829 28.0655 2.92829 27.6028V27.3504L2.5225 26.9297C1.78702 26.1598 1.24175 25.3521 0.835963 24.4393L0.645752 24.0018V20.9939V17.9903L0.852871 17.5485C1.28824 16.6315 1.77011 15.9794 2.53941 15.2643C3.57078 14.3093 3.65109 14.2168 3.89625 13.7498C4.01883 13.5142 4.23863 13.1735 4.38235 12.9884C4.52184 12.8075 4.77968 12.4667 4.95298 12.2354C5.84064 11.0154 7.99636 9.38737 9.9027 8.49133C10.6509 8.13796 11.4793 7.83086 12.3036 7.59528C13.1363 7.3597 13.6266 7.14515 14.6199 6.57724C15.3301 6.17338 15.8415 5.91256 16.1543 5.79477L16.3699 5.71484V6.44262C16.3699 6.84226 16.3868 7.17881 16.4079 7.18722C16.4248 7.19563 16.4502 7.28818 16.4629 7.40177C16.4798 7.55321 16.4713 7.59949 16.4291 7.59949C16.3826 7.59949 16.3699 7.72148 16.3699 8.20947C16.3699 8.62594 16.3572 8.81946 16.3234 8.81946C16.298 8.81946 16.2854 8.8447 16.298 8.87414C16.3149 8.91621 16.2473 8.90359 16.074 8.83628C15.5752 8.63436 15.3258 8.58808 14.7214 8.5965C14.2353 8.6007 14.0493 8.62174 13.4533 8.75215C12.4642 8.9709 12.1937 9.05924 12.0458 9.20227C11.8555 9.39158 11.8978 9.51778 12.4304 10.3297L12.8869 11.028L12.963 11.5497C13.0518 12.1302 13.0391 12.6855 12.925 13.3502C12.8193 13.9602 12.7559 14.12 12.1176 15.4199C11.1327 17.4223 10.8791 18.3647 10.8749 20.0306C10.8749 20.7752 10.9341 21.3305 11.1031 22.1844C11.2722 23.03 11.3441 23.2067 11.8555 23.9849C12.6671 25.2259 13.2124 25.7265 14.341 26.2776C14.7975 26.4964 15.6133 26.7782 16.0656 26.8708C16.2093 26.9002 16.3276 26.9381 16.3276 26.9549C16.3276 26.9675 16.3699 26.976 16.4248 26.9718C16.4756 26.9675 16.484 26.9718 16.446 26.9802C16.3783 26.997 16.3699 27.0517 16.3699 27.3798C16.3699 27.7206 16.3783 27.7584 16.4544 27.7795C16.5897 27.8173 16.5601 27.9267 16.4248 27.893C16.1247 27.8299 15.1483 27.5271 14.7975 27.3882C13.838 27.018 12.46 26.286 11.9105 25.857C11.5385 25.5667 10.7777 25.125 10.3169 24.9315C9.52228 24.6033 8.65576 24.4393 7.89492 24.4813C6.41972 24.5655 5.13897 25.3017 4.55988 26.3996C3.8413 27.7668 4.28936 29.5127 5.65888 30.6569C6.8086 31.6203 8.54164 32.3354 10.5367 32.6762C11.2891 32.8024 12.5276 32.836 12.9038 32.7351C13.4406 32.5962 13.9225 32.2345 14.1338 31.8096C14.286 31.4941 14.2818 31.0145 14.1169 30.6864C13.9605 30.3666 13.6816 30.068 13.3265 29.8324C12.6417 29.3822 11.4244 28.9111 10.3888 28.6965C9.88157 28.5914 9.7928 28.583 9.20104 28.6124L8.56277 28.6376L8.43174 28.5072C8.14431 28.2212 8.1908 27.7332 8.53318 27.5144C8.62195 27.4555 8.71917 27.4471 9.15454 27.4682C10.4607 27.5271 13.0179 28.259 13.7746 28.7849C13.8676 28.8522 14.1169 29.0247 14.3283 29.1677C14.7552 29.458 14.9539 29.6683 15.1694 30.0511C15.5541 30.7284 15.5034 31.7086 15.0469 32.5037C14.6073 33.2693 13.6647 33.812 12.5361 33.9508C11.8598 34.035 11.8767 34.0139 11.7203 34.9394C11.5554 35.9028 11.3948 36.5212 10.8369 38.3469C10.3423 39.9623 10.3043 40.1769 10.4268 40.4756C10.4818 40.606 10.5072 40.6228 10.6424 40.6228C10.727 40.6228 10.8749 40.5807 10.9721 40.5344C11.175 40.4293 11.8344 39.7814 12.4938 39.041C12.963 38.5068 13.5674 37.9262 14.6876 36.9334C15.3639 36.3319 15.5795 36.172 16.0867 35.8944L16.3699 35.7345V36.4707V37.2069L16.539 37.1438C16.632 37.1059 16.708 37.0596 16.708 37.0386C16.708 36.9923 16.8644 36.9965 16.894 37.0428C16.9067 37.0638 16.8518 37.1101 16.7714 37.148C16.6911 37.1858 16.6151 37.2363 16.6024 37.2574C16.5855 37.2826 16.5263 37.2868 16.4629 37.2742C16.3699 37.2532 16.3572 37.2574 16.3995 37.2994C16.4417 37.3457 16.391 37.4004 16.129 37.5813C15.7485 37.8421 14.1846 39.2472 13.8633 39.6132C13.7407 39.7478 13.4153 40.118 13.1363 40.4377C12.5361 41.1192 11.9232 41.6745 11.5723 41.847C11.1877 42.0321 10.3973 42.112 10.0718 41.9942ZM3.68491 25.8191C3.7314 25.7939 4.03574 25.4741 4.35699 25.1081C5.82373 23.4591 6.57612 22.9585 7.70471 22.8828C8.17389 22.8533 8.68958 22.9501 9.25176 23.173C9.48847 23.2656 9.72517 23.3329 9.78012 23.3245C9.85198 23.3161 9.91116 23.253 9.97879 23.1225C10.0887 22.9038 10.0845 22.8365 9.91116 22.2602L9.79703 21.8815V20.2199C9.79703 18.3478 9.76744 18.575 10.1944 17.0479C10.393 16.3454 10.448 16.2108 11.0017 15.0918C11.5385 13.998 11.6062 13.8339 11.7456 13.2997C11.9443 12.5214 11.9697 12.105 11.8555 11.6464C11.7541 11.2594 11.5385 10.864 11.3272 10.6873C10.9763 10.3886 10.355 10.2414 9.82662 10.3339C9.09959 10.4559 7.91605 11.2047 6.86778 12.2059C5.93363 13.0936 5.20237 14.1957 5.01639 14.9908C4.91917 15.4073 4.88112 16.1182 4.92339 16.7829C4.97834 17.7168 5.06711 18.2258 5.63352 20.914C5.78991 21.6544 5.79414 21.7427 5.65042 21.8563C5.4898 21.9825 5.26155 21.9699 5.05443 21.8311C4.81772 21.667 4.68246 21.4945 4.51761 21.1369C4.24286 20.548 4.10337 19.938 3.85821 18.2637C3.67645 17.0185 3.63841 16.846 3.51583 16.724C3.3848 16.5936 3.2749 16.6273 3.02128 16.8881C2.83107 17.0774 2.6789 17.3172 2.2858 18.0323C2.01527 18.5287 1.74475 19.0504 1.6898 19.1892C1.22907 20.2914 1.26711 21.9657 1.78702 23.4801C1.973 24.0144 2.40415 24.9357 2.63663 25.2932C2.79725 25.533 3.09314 25.8696 3.20726 25.9327C3.27912 25.9747 3.48624 25.9243 3.68491 25.8191Z" fill="#F9ADA0"/>
<path d="M16.9406 36.9608C16.9067 36.9103 16.9997 36.8304 17.0547 36.8641C17.0716 36.8767 17.0885 36.8641 17.0885 36.8388C17.0885 36.8136 17.1096 36.8052 17.1308 36.8178C17.1561 36.8304 17.173 36.8262 17.173 36.8052C17.173 36.7547 17.4224 36.6621 17.4689 36.6916C17.4901 36.7042 17.5154 36.6958 17.5281 36.6748C17.5408 36.6537 17.6084 36.6201 17.6718 36.5948C17.7733 36.5612 17.7902 36.5654 17.7944 36.6327C17.8029 36.721 17.7014 36.7421 17.6676 36.6621C17.6507 36.6243 17.6422 36.6327 17.6422 36.6748C17.638 36.7168 17.5281 36.7841 17.3337 36.8641C17.1646 36.9314 17.0124 36.9903 16.9997 36.9987C16.9828 37.0071 16.9575 36.9903 16.9406 36.9608Z" fill="#F9B4A4"/>
<path d="M17.8751 36.6139C17.8624 36.576 17.8751 36.5508 17.9132 36.5508C17.9808 36.5508 17.9977 36.6181 17.9385 36.6517C17.9174 36.6644 17.892 36.6475 17.8751 36.6139Z" fill="#F9B4A4"/>
<path d="M18.1453 36.4449C18.1453 36.4071 18.1706 36.3945 18.2087 36.4071C18.2425 36.4239 18.2721 36.4491 18.2721 36.4702C18.2721 36.4912 18.2425 36.508 18.2087 36.508C18.1749 36.508 18.1453 36.4786 18.1453 36.4449Z" fill="#F9B4A4"/>
<path d="M18.7625 36.1839C18.7498 36.1502 18.7667 36.125 18.8006 36.125C18.8851 36.125 18.9189 36.1965 18.847 36.2218C18.8132 36.2344 18.7752 36.2175 18.7625 36.1839Z" fill="#F9B4A4"/>
<path d="M20.0301 35.4303C20.0175 35.3924 20.0301 35.3672 20.0682 35.3672C20.1358 35.3672 20.1527 35.4345 20.0935 35.4682C20.0724 35.4808 20.0471 35.4639 20.0301 35.4303Z" fill="#F9B4A4"/>
<path d="M19.0247 28.2274C19.0754 28.219 19.1177 28.1938 19.1177 28.1727C19.1177 28.1138 19.6714 28.1307 19.8574 28.198C20.018 28.2569 20.0054 28.2569 19.477 28.2527C19.1769 28.2484 18.9698 28.24 19.0247 28.2274Z" fill="#F9B4A4"/>
<path d="M18.3436 28.1803C18.2844 28.1256 18.3182 28.0793 18.407 28.0919C18.5211 28.1088 18.5591 28.2097 18.4535 28.2097C18.407 28.2097 18.3563 28.1971 18.3436 28.1803Z" fill="#F9B4A4"/>
<path d="M20.5378 28.1529C20.5251 28.1151 20.5378 28.0898 20.5716 28.0898C20.6012 28.0898 20.6519 28.1193 20.6815 28.1529C20.7238 28.2034 20.7195 28.216 20.6477 28.216C20.6012 28.216 20.5547 28.1866 20.5378 28.1529Z" fill="#F9B4A4"/>
<path d="M17.854 28.1609C17.8624 28.1566 17.9047 28.123 17.947 28.0935C18.0061 28.0431 18.0188 28.0473 18.0188 28.1062C18.0188 28.1482 17.985 28.1735 17.9258 28.1735C17.8751 28.1735 17.8455 28.1693 17.854 28.1609Z" fill="#F9B4A4"/>
<path d="M17.5537 28.0709C17.5537 28.0373 17.5833 28.0078 17.6171 28.0078C17.6509 28.0078 17.6805 28.0373 17.6805 28.0709C17.6805 28.1046 17.6509 28.134 17.6171 28.134C17.5833 28.134 17.5537 28.1046 17.5537 28.0709Z" fill="#F9B4A4"/>
<path d="M17.3294 28.0577C17.2745 28.0072 17.2998 27.9609 17.3844 27.9609C17.4308 27.9609 17.4689 27.9904 17.4689 28.024C17.4689 28.0871 17.3801 28.1124 17.3294 28.0577Z" fill="#F9B4A4"/>
<path d="M17.0716 27.985C17.0885 27.9513 17.1223 27.9219 17.1561 27.9219C17.19 27.9219 17.2153 27.9513 17.2153 27.985C17.2153 28.0186 17.1773 28.0481 17.1308 28.0481C17.0758 28.0481 17.0547 28.027 17.0716 27.985Z" fill="#F9B4A4"/>
<path d="M16.7925 27.939C16.7925 27.9012 16.8221 27.8801 16.8643 27.8886C16.97 27.9096 16.9827 28.0064 16.8812 28.0064C16.8305 28.0064 16.7925 27.9811 16.7925 27.939Z" fill="#F9B4A4"/>
<path d="M16.6448 27.9171C16.6109 27.8625 16.6405 27.8162 16.7039 27.8372C16.7293 27.8498 16.7335 27.8793 16.7124 27.9129C16.687 27.955 16.6701 27.955 16.6448 27.9171Z" fill="#F9B4A4"/>
<path d="M18.3906 27.1782C18.4413 27.1698 18.5258 27.1698 18.5808 27.1782C18.6315 27.1866 18.5892 27.195 18.4836 27.195C18.3779 27.195 18.3356 27.1866 18.3906 27.1782Z" fill="#F9B4A4"/>
<path d="M19.1516 27.1782C19.2023 27.1698 19.2868 27.1698 19.3418 27.1782C19.3925 27.1866 19.3502 27.195 19.2446 27.195C19.1389 27.195 19.0966 27.1866 19.1516 27.1782Z" fill="#F9B4A4"/>
<path d="M17.6723 27.1352C17.723 27.1268 17.8076 27.1268 17.8625 27.1352C17.9132 27.1436 17.871 27.152 17.7653 27.152C17.6596 27.152 17.6174 27.1436 17.6723 27.1352Z" fill="#F9B4A4"/>
<path d="M20.8507 26.3262C20.7704 26.2589 20.7154 26.1874 20.7323 26.1706C20.7492 26.1538 20.7746 26.1706 20.7915 26.2084C20.8042 26.2463 20.8422 26.2631 20.876 26.2505C20.9183 26.2337 20.9479 26.2589 20.9648 26.3178C20.9775 26.3641 21.0028 26.3935 21.024 26.3809C21.0451 26.3683 21.062 26.3809 21.062 26.402C21.062 26.4735 21.0071 26.4566 20.8507 26.3262Z" fill="#F9B4A4"/>
<path d="M20.1997 25.8188C19.012 24.8722 17.6298 23.5387 16.9027 22.6426C15.9855 21.4984 15.3388 20.3373 15.0598 19.3235C14.9753 19.029 14.9668 18.886 14.9668 18.1035C14.971 17.3463 14.9837 17.1696 15.0556 16.8962C15.4867 15.2892 16.7717 14.0103 18.3779 13.5938C18.9443 13.4466 19.7813 13.4087 20.3012 13.5097C20.6774 13.5812 21.1804 13.7369 21.0493 13.7411C21.0071 13.7453 20.9056 13.7158 20.8211 13.6822C20.7408 13.6485 20.6647 13.6191 20.6562 13.6191C20.6478 13.6191 20.6351 16.4376 20.6309 19.883L20.6182 26.1511L20.1997 25.8188Z" fill="#F9ADA0"/>
<path d="M18.103 11.7319C18.103 11.6561 18.1749 11.6477 18.2552 11.7066C18.3313 11.7655 18.3313 11.7655 18.2214 11.7697C18.1538 11.7697 18.103 11.7529 18.103 11.7319Z" fill="#F9B4A4"/>
<path d="M18.4414 11.6576C18.4414 11.5777 18.5259 11.5777 18.6781 11.6576L18.8007 11.7207H18.6232C18.4879 11.7207 18.4414 11.7039 18.4414 11.6576Z" fill="#F9B4A4"/>
<path d="M17.8751 11.1504C17.8582 11.0663 17.8539 10.9906 17.8624 10.9822C17.8751 10.9695 17.8962 11.0284 17.9089 11.1168C17.9258 11.2009 17.93 11.2766 17.9216 11.2851C17.9089 11.2977 17.8877 11.2388 17.8751 11.1504Z" fill="#F9B4A4"/>
<path d="M17.7608 10.771C17.7396 10.7079 17.71 10.6406 17.6974 10.6238C17.6847 10.6028 17.6931 10.5859 17.7143 10.5859C17.7354 10.5859 17.7692 10.6532 17.7946 10.7332C17.8495 10.9057 17.8242 10.9309 17.7608 10.771Z" fill="#F9B4A4"/>
<path d="M17.4607 10.1388C17.2747 9.81486 17.1986 9.62976 17.2958 9.73072C17.3677 9.80224 17.6889 10.4206 17.672 10.4585C17.6678 10.4753 17.5706 10.3323 17.4607 10.1388Z" fill="#F9B4A4"/>
<path d="M18.5679 10.0421C18.5679 10.021 18.5975 10 18.6313 10C18.6651 10 18.6947 10.021 18.6947 10.0421C18.6947 10.0673 18.6651 10.0841 18.6313 10.0841C18.5975 10.0841 18.5679 10.0673 18.5679 10.0421Z" fill="#F9B4A4"/>
<path d="M21.9495 10.0421C21.9495 10.021 21.9875 10 22.0298 10C22.0763 10 22.127 10.021 22.1397 10.0421C22.1566 10.0673 22.1185 10.0841 22.0594 10.0841C22.0002 10.0841 21.9495 10.0673 21.9495 10.0421Z" fill="#F9B4A4"/>
<path d="M22.4146 9.99805C22.4146 9.94336 22.4991 9.94336 22.5836 9.99805C22.6344 10.0317 22.6217 10.0401 22.5329 10.0401C22.4653 10.0401 22.4146 10.0233 22.4146 9.99805Z" fill="#F9B4A4"/>
<path d="M17 9.46958C16.945 9.40647 16.9324 9.38123 16.9746 9.41068C17.0127 9.44013 17.0465 9.45275 17.0465 9.43171C17.0465 9.41068 17.0676 9.42751 17.093 9.46958C17.1648 9.59578 17.1099 9.59157 17 9.46958Z" fill="#F9B4A4"/>
<path d="M16.7799 9.24753C16.6911 9.15077 16.6869 9.10871 16.7672 9.13815C16.801 9.15077 16.8348 9.19705 16.8475 9.24332C16.8729 9.34429 16.8644 9.34429 16.7799 9.24753Z" fill="#F9B4A4"/>
<path d="M16.4163 8.99545C16.374 8.97021 16.374 8.95338 16.4121 8.92814C16.467 8.89449 16.5135 8.92394 16.4924 8.98704C16.4797 9.01228 16.4501 9.01648 16.4163 8.99545Z" fill="#F9B4A4"/>
<path d="M17.883 8.79507C17.7647 8.73618 17.7224 8.65625 17.8112 8.65625C17.8323 8.65625 17.8408 8.67728 17.8281 8.69832C17.8154 8.72356 17.8281 8.74039 17.8619 8.74039C17.8957 8.74039 17.9464 8.76983 17.976 8.80349C18.0394 8.87921 18.0352 8.875 17.883 8.79507Z" fill="#F9B4A4"/>
<path d="M17.583 8.5261C17.5408 8.48403 17.5239 8.43776 17.545 8.42513C17.5661 8.41251 17.6168 8.43776 17.6549 8.47982C17.7479 8.58499 17.6845 8.62285 17.583 8.5261Z" fill="#F9B4A4"/>
<path d="M17.3632 8.3651C17.321 8.29359 17.414 8.27676 17.4689 8.33986C17.5112 8.39034 17.5112 8.40296 17.4562 8.40296C17.4182 8.40296 17.3801 8.38614 17.3632 8.3651Z" fill="#F9B4A4"/>
<path d="M17.0504 8.15293C17.0208 8.1319 17.0123 8.10665 17.0335 8.09403C17.0504 8.08141 17.1053 8.09824 17.1518 8.1319C17.2406 8.1992 17.1518 8.21603 17.0504 8.15293Z" fill="#F9B4A4"/>
<path d="M16.8392 8.02793C16.8096 8.0069 16.8012 7.98165 16.8223 7.96903C16.8392 7.95641 16.8941 7.97324 16.9406 8.0069C17.0294 8.0742 16.9406 8.09103 16.8392 8.02793Z" fill="#F9B4A4"/>
<path d="M16.4671 7.15258C16.3403 7.10631 16.4502 7.03059 16.6869 6.99272C16.7334 6.98431 16.8179 6.96748 16.8771 6.95066C17.0927 6.89597 17.2575 6.88335 17.2575 6.917C17.2575 6.93804 17.1096 6.98852 16.9321 7.03059C16.7503 7.07265 16.5855 7.12313 16.5601 7.13996C16.539 7.15679 16.4925 7.161 16.4671 7.15258Z" fill="#F9B4A4"/>
<path d="M17.2998 6.88582C17.2998 6.86478 17.3294 6.84375 17.3632 6.84375C17.397 6.84375 17.4266 6.86478 17.4266 6.88582C17.4266 6.91106 17.397 6.92789 17.3632 6.92789C17.3294 6.92789 17.2998 6.91106 17.2998 6.88582Z" fill="#F9B4A4"/>
<path d="M17.4519 6.82682C17.435 6.78475 17.4603 6.76371 17.5237 6.7553C17.7266 6.74268 17.8323 6.73006 17.8873 6.71744C17.9168 6.70903 17.9507 6.72165 17.9591 6.74689C17.9718 6.77213 17.883 6.8142 17.7604 6.83944C17.4899 6.90254 17.4815 6.90254 17.4519 6.82682Z" fill="#F9B4A4"/>
<path d="M18.0186 6.70211C18.0186 6.6306 18.027 6.62639 18.12 6.66425C18.2172 6.70211 18.2045 6.76521 18.1031 6.76521C18.0566 6.76521 18.0186 6.73577 18.0186 6.70211Z" fill="#F9B4A4"/>
<path d="M18.2297 6.67488C18.2297 6.65385 18.2593 6.63281 18.2931 6.63281C18.327 6.63281 18.3565 6.65385 18.3565 6.67488C18.3565 6.70012 18.327 6.71695 18.2931 6.71695C18.2593 6.71695 18.2297 6.70012 18.2297 6.67488Z" fill="#F9B4A4"/>
<path d="M18.4283 6.61746C18.4114 6.57539 18.4283 6.56698 18.4875 6.5796C18.6016 6.60904 18.6312 6.67635 18.534 6.67635C18.4875 6.67635 18.441 6.65111 18.4283 6.61746Z" fill="#F9B4A4"/>
<path d="M18.6523 6.57384C18.6523 6.53598 18.6819 6.52336 18.7369 6.53598C18.7834 6.5486 18.8214 6.57384 18.8214 6.59488C18.8214 6.61591 18.7834 6.63274 18.7369 6.63274C18.6904 6.63274 18.6523 6.6075 18.6523 6.57384Z" fill="#F9B4A4"/>
<path d="M18.9905 6.53025C18.9905 6.47556 19.0074 6.47135 19.075 6.50921C19.1215 6.53445 19.1596 6.5639 19.1596 6.57231C19.1596 6.58493 19.1215 6.59335 19.075 6.59335C19.0285 6.59335 18.9905 6.5639 18.9905 6.53025Z" fill="#F9B4A4"/>
<path d="M19.4556 6.48648C19.4556 6.41076 19.4767 6.41076 19.688 6.48648L19.8571 6.54537L19.6585 6.54958C19.5063 6.54958 19.4556 6.53275 19.4556 6.48648Z" fill="#F9B4A4"/>
<path d="M20.5125 6.47531C20.5125 6.408 20.7534 6.39117 20.9394 6.45007L21.1254 6.50896H20.821C20.6519 6.51317 20.5125 6.49634 20.5125 6.47531Z" fill="#F9B4A4"/>
<path d="M22.2031 6.47843C22.2031 6.41953 22.2496 6.39008 22.313 6.41533C22.4018 6.44898 22.3849 6.51208 22.2877 6.51208C22.2412 6.51208 22.2031 6.49525 22.2031 6.47843Z" fill="#F9B4A4"/>
<path d="M32.0426 32.3455L32.0299 31.5336L32.1356 31.4663C32.1947 31.4326 32.4399 31.2013 32.6851 30.9531C32.9302 30.7091 33.1754 30.4735 33.2303 30.4314C33.3106 30.3641 33.3233 30.3263 33.3022 30.2001C33.2895 30.1117 33.2726 30.0065 33.2684 29.9603C33.2599 29.914 33.2303 29.8551 33.1965 29.8299C33.1627 29.8046 33.15 29.7625 33.1669 29.7373C33.1923 29.691 33.1416 29.67 33.057 29.6826C33.0359 29.6826 33.0232 29.6574 33.0232 29.6237C33.0232 29.5648 32.9725 29.5396 32.8837 29.5564C32.8668 29.5606 32.8372 29.527 32.8245 29.4891C32.7823 29.3797 32.6977 29.304 32.6343 29.3166C32.6047 29.325 32.5752 29.2872 32.5667 29.2367C32.5582 29.1862 32.516 29.1315 32.4737 29.1189C32.3807 29.0895 32.1778 28.8328 32.1778 28.7445C32.1778 28.6435 32.1313 28.551 32.0891 28.5762C32.0679 28.5889 32.051 28.572 32.051 28.5426C32.0383 28.0714 32.0595 25.1645 32.0764 25.1393C32.0848 25.1183 32.144 25.1267 32.199 25.1519C32.3342 25.2108 32.6132 25.1435 33.0232 24.9416L33.3402 24.7859H34.2701C35.3269 24.7859 35.6524 24.828 36.912 25.1225C38.1589 25.4127 38.5013 25.4464 39.0466 25.3328C39.5496 25.2276 40.0483 24.9584 40.6528 24.4662C41.0205 24.1717 41.1981 24.0792 41.4136 24.075C41.7602 24.0666 41.9589 24.3148 41.9589 24.7649C41.9631 25.5642 41.2319 26.0311 39.7102 26.1952C39.1691 26.2541 36.8612 26.2331 36.8401 26.17C36.8317 26.1489 36.7302 26.1405 36.6119 26.1489C36.4597 26.1573 36.3836 26.1447 36.3582 26.1068C36.3371 26.0732 36.3202 26.069 36.3202 26.09C36.3202 26.1405 35.5889 26.0816 35.5678 26.0311C35.5636 26.0185 35.4833 26.0101 35.3903 26.0185C35.2973 26.0269 35.2212 26.0185 35.2212 25.9975C35.2212 25.9764 35.1451 25.968 35.0521 25.9764C34.9591 25.9849 34.8831 25.9764 34.8831 25.9554C34.8831 25.9344 34.8154 25.926 34.7351 25.9344C34.6548 25.9428 34.5872 25.9344 34.5872 25.9133C34.5872 25.8923 34.5195 25.8839 34.4392 25.8923C34.3251 25.9049 34.2913 25.8965 34.2913 25.8418C34.2913 25.804 34.2744 25.7745 34.249 25.7745C34.2279 25.7745 34.2067 25.7955 34.2067 25.8166C34.2067 25.8418 34.1602 25.8586 34.1011 25.8586C34.0419 25.8586 33.9954 25.8418 33.9954 25.8208C33.9954 25.7745 33.7502 25.7998 33.5304 25.8713C33.4501 25.8965 33.3402 25.9133 33.2853 25.9049C33.2092 25.8965 33.1923 25.9133 33.2007 25.9933C33.2134 26.069 33.1965 26.0858 33.1204 26.0774C33.0697 26.069 33.019 26.0858 33.0021 26.1111C32.9894 26.1321 33.0063 26.1531 33.0401 26.1531C33.0782 26.1531 33.1077 26.1657 33.1077 26.1868C33.1035 26.2541 32.9894 26.3635 32.9133 26.3677C32.8668 26.3677 32.8584 26.3803 32.8879 26.3929C32.9767 26.4266 32.9471 26.5275 32.8541 26.5023C32.7485 26.4728 32.7442 26.5233 32.8457 26.599C32.9133 26.6495 32.9091 26.6537 32.8245 26.6579C32.7696 26.6579 32.7273 26.679 32.7273 26.7C32.7273 26.7252 32.7485 26.7421 32.7738 26.7421C32.833 26.7421 32.7738 27.4236 32.7104 27.4698C32.6808 27.4951 32.6935 27.4993 32.74 27.4825C32.7907 27.4656 32.8119 27.4825 32.8119 27.5414C32.8119 27.5876 32.795 27.6255 32.7696 27.6255C32.7485 27.6255 32.7273 27.6465 32.7273 27.6676C32.7273 27.6928 32.7569 27.7096 32.7907 27.7096C32.8668 27.7096 32.8753 27.7769 32.8034 27.8064C32.7654 27.8232 32.7738 27.8316 32.8161 27.8316C32.9006 27.8358 33.0063 28.0462 32.926 28.0504C32.9006 28.0504 32.9218 28.0714 32.9809 28.0925C33.0655 28.1261 33.0739 28.1429 33.0232 28.1724C32.9725 28.206 32.9725 28.2145 33.0148 28.2145C33.0486 28.2145 33.1796 28.3112 33.3106 28.429C33.4459 28.5468 33.7333 28.7487 33.9531 28.8791C34.1729 29.0095 34.3631 29.1273 34.3758 29.1399C34.4688 29.2367 35.6354 29.6027 36.1131 29.6826C37.1909 29.8677 39.0635 29.9014 39.8919 29.7499C40.7331 29.5985 42.2379 28.9801 42.8762 28.5258C43.2143 28.2818 44.0893 27.4909 44.3387 27.2048C44.5585 26.9482 44.8036 26.557 45.0403 26.0858C45.5898 24.9878 45.8054 24.0077 45.7082 23.0275C45.6194 22.1483 45.463 21.5803 45.108 20.8231C45.015 20.6338 44.9431 20.4613 44.9431 20.4403C44.9431 20.4193 44.8966 20.352 44.8374 20.2889C44.7571 20.2005 44.698 20.1795 44.5373 20.1795C44.3429 20.1795 44.3302 20.1879 43.8695 20.638C43.1509 21.3363 42.6014 21.6477 41.7307 21.8327C41.1896 21.9463 40.0822 21.9547 39.4693 21.8454C38.4252 21.6561 37.2966 21.0755 36.3413 20.23C36.1131 20.028 35.9186 19.9271 35.7538 19.9271C35.6988 19.9271 35.4875 20.007 35.2846 20.1038C35.0606 20.2089 34.845 20.2804 34.7393 20.2889C34.5026 20.2973 34.5026 20.2973 34.5026 20.373C34.5026 20.4235 34.473 20.4319 34.3758 20.4109C34.2955 20.394 34.249 20.3982 34.249 20.4277C34.249 20.4571 34.2152 20.4571 34.1433 20.4319C34.063 20.4024 34.0377 20.4066 34.0377 20.4529C34.0377 20.5244 33.8517 20.5497 33.6742 20.5076C33.5981 20.4866 33.4966 20.4908 33.4417 20.5118C33.3867 20.5329 33.2388 20.5371 33.1204 20.5286C32.9175 20.5076 32.8964 20.495 32.8964 20.4024C32.8964 20.3478 32.9344 20.2131 32.9809 20.1038C33.0232 19.9944 33.0993 19.8009 33.1416 19.6747C33.2176 19.4433 33.2176 19.4433 33.429 19.4096C34.0926 19.3003 34.3082 19.2498 34.5449 19.1446C34.9338 18.9721 34.9422 18.9048 34.6506 18.4715C34.5238 18.2822 34.4181 18.0929 34.4181 18.0551C34.4181 18.0172 34.4012 17.9962 34.3843 18.0088C34.3378 18.0382 33.5727 17.016 33.5727 16.9276C33.5727 16.915 33.5262 16.8519 33.4713 16.793C33.3698 16.6836 33.2346 16.2461 33.2346 16.019C33.2346 15.9517 33.2176 15.8886 33.1923 15.8801C33.1711 15.8759 33.1204 15.7413 33.0824 15.5857C33.0401 15.4132 32.9936 15.3122 32.9683 15.3291C32.9429 15.3459 32.9344 15.3291 32.9513 15.287C32.964 15.2449 32.9598 15.2155 32.9387 15.2155C32.8964 15.2155 32.7611 14.9294 32.7104 14.7401C32.6977 14.677 32.6639 14.6349 32.6428 14.6476C32.6174 14.6644 32.5878 14.6181 32.5752 14.5466C32.5582 14.4751 32.5329 14.4288 32.5117 14.4414C32.4906 14.454 32.4737 14.433 32.4737 14.3993C32.4737 14.3615 32.4568 14.332 32.4314 14.332C32.4103 14.332 32.3892 14.2942 32.3892 14.2479C32.3892 14.189 32.4272 14.1596 32.5413 14.1385C32.7231 14.1049 32.9598 14.168 32.9598 14.2479C32.9598 14.2816 33.0063 14.332 33.0655 14.3615C33.1247 14.3909 33.1669 14.433 33.1627 14.4582C33.1542 14.4793 33.1754 14.5003 33.205 14.5003C33.2726 14.5003 34.2744 16.0021 34.2575 16.0821C34.249 16.1157 34.2744 16.141 34.3082 16.141C34.342 16.141 34.5449 16.3723 34.7605 16.6542C35.3438 17.424 35.627 17.7606 36.4512 18.665C37.2248 19.5148 37.4868 19.7504 37.9898 20.0449C39.2706 20.7937 41.1981 20.9788 42.2421 20.4529C42.5549 20.2931 43.0283 19.8892 43.2566 19.5947C43.5651 19.1825 43.6497 18.9385 43.6497 18.4547C43.6455 17.9457 43.5313 17.5881 43.1171 16.8351C42.5253 15.7497 41.9082 14.9546 41.0628 14.189C39.9723 13.2004 39.5242 12.8975 38.2012 12.2371C36.9838 11.6271 36.7049 11.5471 36.4681 11.7322C36.3625 11.8122 36.354 11.8416 36.3709 12.0393C36.3921 12.2917 36.3329 12.2034 37.3769 13.5959C38.197 14.6896 38.5774 15.0977 39.296 15.6446C39.6383 15.9054 39.744 16.0779 39.744 16.3723C39.744 16.5532 39.7229 16.6079 39.6299 16.6963C39.3678 16.9445 39.1311 16.9571 38.8056 16.7383C38.1336 16.3008 37.2839 15.4426 36.5231 14.4456C35.5425 13.1583 35.1282 12.4726 34.6717 11.3873C34.3631 10.6553 34.2321 10.4029 33.97 10.0537C33.8432 9.88546 33.7418 9.73402 33.7418 9.71299C33.7418 9.69616 33.6868 9.64568 33.615 9.60782C33.5473 9.56575 33.4882 9.50265 33.4882 9.46478C33.4882 9.42692 33.4755 9.4101 33.4628 9.42272C33.4205 9.46478 33.2768 9.37224 33.2768 9.30072C33.2768 9.26707 33.2599 9.25024 33.2346 9.26286C33.2134 9.27548 33.1923 9.25865 33.1923 9.22079C33.1923 9.17031 33.1669 9.15769 33.1035 9.17872C33.0401 9.19976 33.0105 9.18714 32.9936 9.11562C32.9809 9.06093 32.9471 9.03569 32.9133 9.04831C32.8795 9.06093 32.8541 9.05252 32.8541 9.03149C32.8541 9.00624 32.8414 8.99362 32.8245 8.99362C32.7189 9.01045 32.6428 8.981 32.6428 8.92211C32.6428 8.88845 32.6259 8.87163 32.6005 8.88425C32.5794 8.89687 32.5582 8.88004 32.5582 8.84218C32.5582 8.7917 32.5329 8.77908 32.4737 8.80011C32.4145 8.82115 32.3892 8.80853 32.3892 8.76225C32.3892 8.69494 32.3215 8.67391 32.1482 8.69074C32.0595 8.69494 32.0595 8.68653 32.051 7.97558C32.051 7.57594 32.0383 7.23939 32.0299 7.21836C32.0172 7.20153 32.0975 7.21415 32.2116 7.24781C32.3215 7.28146 32.4188 7.32774 32.423 7.34877C32.4314 7.37401 32.4568 7.38242 32.4779 7.3656C32.4991 7.35298 32.5794 7.38242 32.6597 7.4287C32.7358 7.47918 32.833 7.51704 32.871 7.51704C32.9091 7.51704 32.9387 7.53807 32.9387 7.55911C32.9387 7.58435 32.9767 7.60118 33.0232 7.60118C33.0697 7.60118 33.1077 7.62221 33.1077 7.64324C33.1077 7.66849 33.1373 7.68531 33.1754 7.68531C33.2092 7.68531 33.2261 7.70635 33.2134 7.72738C33.2007 7.75262 33.2303 7.76945 33.281 7.76945C33.4374 7.76945 34.3631 8.4846 34.3124 8.56874C34.2997 8.58557 34.3462 8.62763 34.4096 8.65708C34.5618 8.7328 34.8408 8.97259 34.8408 9.03149C34.8408 9.05252 34.8619 9.07355 34.8873 9.07355C34.9126 9.07355 35.0775 9.20817 35.255 9.37224C35.4368 9.5363 35.6312 9.69616 35.6988 9.72981C35.7623 9.76347 36.1427 9.89808 36.5442 10.0243C37.3051 10.2725 38.3576 10.6763 38.793 10.8951C39.203 11.097 40.2343 11.7112 40.7669 12.0688C41.4432 12.5231 41.8828 12.9312 42.631 13.7936C43.3453 14.6223 43.8357 15.3837 44.5289 16.7509C45.0572 17.7984 45.5814 18.7786 46.1732 19.8429C46.6931 20.7811 46.7649 20.9451 46.9298 21.593C47.3398 23.1705 47.1242 24.8574 46.2957 26.5612C45.704 27.7727 44.8374 28.8539 43.9075 29.548C42.7536 30.4062 40.8346 31.0498 38.8394 31.2391C38.1758 31.3064 37.0515 31.298 37.0261 31.2349C37.0134 31.2055 37.0007 31.2013 37.0007 31.2223C36.9965 31.2686 36.5738 31.2518 36.5738 31.2097C36.5738 31.1929 36.4555 31.1802 36.3117 31.176C36.168 31.176 36.0455 31.155 36.037 31.1298C36.0285 31.1087 35.9736 31.0961 35.9186 31.1087C35.8552 31.1171 35.813 31.1087 35.813 31.0793C35.813 31.0498 35.7961 31.0372 35.7749 31.054C35.7496 31.0667 35.572 31.0372 35.3734 30.9867L35.0141 30.8984L34.8323 30.9867C34.7309 31.033 34.528 31.176 34.38 31.298C34.1898 31.4621 34.0842 31.521 34.0208 31.5084C33.9531 31.4915 33.9447 31.5 33.9912 31.5294C34.0377 31.5631 34.0165 31.6009 33.8897 31.7103C33.7883 31.7986 33.6953 31.8491 33.6403 31.8407C33.5685 31.8281 33.5643 31.8365 33.6023 31.8786C33.6699 31.9459 33.467 32.1099 33.3318 32.0931C33.2515 32.0805 33.2346 32.0973 33.243 32.1772C33.2515 32.253 33.2346 32.2698 33.1711 32.2656C33.1247 32.2572 33.0486 32.2824 33.0063 32.3161C32.9429 32.3666 32.9344 32.3876 32.9767 32.4381C33.019 32.4886 33.0105 32.5096 32.9302 32.5517C32.8753 32.5811 32.8076 32.6021 32.778 32.5937C32.702 32.5811 32.5963 32.6736 32.6259 32.7241C32.6386 32.7452 32.6174 32.7999 32.5794 32.8419C32.5244 32.905 32.4864 32.9134 32.4272 32.884C32.3765 32.8545 32.3427 32.8545 32.3258 32.884C32.3131 32.905 32.33 32.9261 32.3638 32.9261C32.4018 32.9261 32.4314 32.9429 32.4314 32.9639C32.4314 33.0144 32.3004 33.0691 32.2032 33.0565C32.1609 33.0481 32.1102 33.0691 32.0891 33.1027C32.0721 33.1322 32.051 32.7914 32.0426 32.3455Z" fill="#F9ADA0"/>
<path d="M26.1381 25.8171C26.0959 25.7961 26.1043 25.7793 26.1551 25.7582C26.2523 25.7246 26.303 25.7246 26.303 25.7708C26.303 25.8255 26.1973 25.855 26.1381 25.8171Z" fill="#F9ADA0"/>
<path d="M26.1763 19.5855V13.4983L26.5863 13.4688C27.364 13.4099 28.0192 13.5151 28.7251 13.8096C29.7607 14.2387 30.568 15.0043 31.0795 16.035C31.3838 16.645 31.4895 17.032 31.5529 17.785C31.5952 18.2814 31.5952 18.416 31.5318 18.7862C31.2317 20.6078 29.7649 22.7701 27.4232 24.844C26.7089 25.4792 26.5905 25.5634 26.506 25.5171C26.4595 25.4918 26.4257 25.4918 26.4088 25.5213C26.3961 25.5423 26.413 25.5634 26.451 25.5634C26.5947 25.5634 26.4806 25.6643 26.3327 25.6727L26.1763 25.6769V19.5855Z" fill="#F9ADA0"/>
<path d="M26.4935 37.4327C26.4808 37.4117 26.4977 37.3906 26.5315 37.3906C26.5653 37.3906 26.6076 37.4117 26.6203 37.4327C26.633 37.4579 26.616 37.4748 26.5822 37.4748C26.5484 37.4748 26.5061 37.4579 26.4935 37.4327Z" fill="#F9ADA0"/>
<path d="M9.31104 28.5488C9.31104 28.4941 9.39557 28.4941 9.48011 28.5488C9.53083 28.5825 9.51815 28.5909 9.42939 28.5909C9.36176 28.5909 9.31104 28.5741 9.31104 28.5488Z" fill="#F9ADA0"/>
<path d="M2.9408 27.7307C2.9408 27.6381 2.94925 27.6045 2.9577 27.6592C2.96616 27.7096 2.96616 27.7854 2.9577 27.8274C2.94502 27.8653 2.93657 27.8232 2.9408 27.7307Z" fill="#F9ADA0"/>
<path d="M1.79125 26.1003C1.75743 26.0582 1.7532 26.033 1.78702 26.012C1.80815 25.9993 1.84197 26.0162 1.85465 26.054C1.89269 26.1466 1.85042 26.176 1.79125 26.1003Z" fill="#F9ADA0"/>
<path d="M2.86482 25.6896C2.82255 25.6433 2.80565 25.6055 2.83101 25.6055C2.85214 25.6055 2.90709 25.6433 2.94936 25.6896C2.99163 25.7359 3.00854 25.7737 2.98318 25.7737C2.96204 25.7737 2.90709 25.7359 2.86482 25.6896Z" fill="#F9ADA0"/>
<path d="M1.24609 25.2682C1.22073 25.222 1.21228 25.1799 1.23341 25.1631C1.25455 25.1505 1.28836 25.1799 1.30104 25.2304C1.33909 25.3482 1.3095 25.3692 1.24609 25.2682Z" fill="#F9ADA0"/>
<path d="M0.97136 24.7431C0.907957 24.6169 0.874141 24.5117 0.891049 24.5117C0.933318 24.5117 1.13198 24.924 1.10662 24.9534C1.09394 24.9618 1.03476 24.8693 0.97136 24.7431Z" fill="#F9ADA0"/>
<path d="M6.85938 24.5928C6.85938 24.5718 6.88896 24.5508 6.92278 24.5508C6.95659 24.5508 6.98618 24.5718 6.98618 24.5928C6.98618 24.6181 6.95659 24.6349 6.92278 24.6349C6.88896 24.6349 6.85938 24.6181 6.85938 24.5928Z" fill="#F9ADA0"/>
<path d="M7.02832 24.5538C7.02832 24.5328 7.05791 24.5117 7.09172 24.5117C7.12554 24.5117 7.15513 24.5328 7.15513 24.5538C7.15513 24.579 7.12554 24.5959 7.09172 24.5959C7.05791 24.5959 7.02832 24.579 7.02832 24.5538Z" fill="#F9ADA0"/>
<path d="M0.632903 23.9393C0.0411347 22.3828 -0.0603113 20.5613 0.3497 18.9417C0.463827 18.4873 0.662492 17.932 0.734349 17.8479C0.759711 17.8269 0.772392 19.1352 0.772392 20.982C0.772392 22.7278 0.785073 24.2002 0.797753 24.2548C0.861157 24.4778 0.776619 24.318 0.632903 23.9393Z" fill="#F9ADA0"/>
<path d="M1.9775 24.2592C1.96059 24.2339 1.95636 24.2045 1.96904 24.1919C1.99863 24.1624 2.08317 24.2171 2.08317 24.2676C2.08317 24.3181 2.01131 24.3181 1.9775 24.2592Z" fill="#F9ADA0"/>
<path d="M1.8291 23.9249C1.8291 23.9038 1.85869 23.8828 1.89251 23.8828C1.92632 23.8828 1.95591 23.9038 1.95591 23.9249C1.95591 23.9501 1.92632 23.9669 1.89251 23.9669C1.85869 23.9669 1.8291 23.9501 1.8291 23.9249Z" fill="#F9ADA0"/>
<path d="M1.70264 23.5889C1.70264 23.5679 1.73223 23.5469 1.76604 23.5469C1.79986 23.5469 1.82944 23.5679 1.82944 23.5889C1.82944 23.6142 1.79986 23.631 1.76604 23.631C1.73223 23.631 1.70264 23.6142 1.70264 23.5889Z" fill="#F9ADA0"/>
<path d="M1.6604 23.46C1.6604 23.439 1.68999 23.418 1.7238 23.418C1.75762 23.418 1.78721 23.439 1.78721 23.46C1.78721 23.4853 1.75762 23.5021 1.7238 23.5021C1.68999 23.5021 1.6604 23.4853 1.6604 23.46Z" fill="#F9ADA0"/>
<path d="M1.61792 23.3389C1.61792 23.3179 1.64751 23.2969 1.68132 23.2969C1.71514 23.2969 1.74473 23.3179 1.74473 23.3389C1.74473 23.3642 1.71514 23.381 1.68132 23.381C1.64751 23.381 1.61792 23.3642 1.61792 23.3389Z" fill="#F9ADA0"/>
<path d="M1.57568 23.2061C1.57568 23.1851 1.60527 23.1641 1.63909 23.1641C1.6729 23.1641 1.70249 23.1851 1.70249 23.2061C1.70249 23.2314 1.6729 23.2482 1.63909 23.2482C1.60527 23.2482 1.57568 23.2314 1.57568 23.2061Z" fill="#F9ADA0"/>
<path d="M1.49121 22.9132C1.49121 22.8921 1.5208 22.8711 1.55461 22.8711C1.58843 22.8711 1.61802 22.8921 1.61802 22.9132C1.61802 22.9384 1.58843 22.9552 1.55461 22.9552C1.5208 22.9552 1.49121 22.9384 1.49121 22.9132Z" fill="#F9ADA0"/>
<path d="M1.44897 22.7452C1.44897 22.7242 1.47856 22.7031 1.51238 22.7031C1.54619 22.7031 1.57578 22.7242 1.57578 22.7452C1.57578 22.7704 1.54619 22.7873 1.51238 22.7873C1.47856 22.7873 1.44897 22.7704 1.44897 22.7452Z" fill="#F9ADA0"/>
<path d="M1.40698 22.5303C1.40698 22.5093 1.43657 22.4883 1.47039 22.4883C1.5042 22.4883 1.53379 22.5093 1.53379 22.5303C1.53379 22.5556 1.5042 22.5724 1.47039 22.5724C1.43657 22.5724 1.40698 22.5556 1.40698 22.5303Z" fill="#F9ADA0"/>
<path d="M1.27954 21.7727C1.27954 21.7475 1.30913 21.7012 1.34294 21.6675C1.39789 21.6086 1.40635 21.6129 1.40635 21.7096C1.40635 21.7769 1.38099 21.819 1.34294 21.819C1.30913 21.819 1.27954 21.798 1.27954 21.7727Z" fill="#F9ADA0"/>
<path d="M1.36408 20.4799C1.36408 20.4336 1.34717 20.3957 1.32181 20.3957C1.30068 20.3957 1.27954 20.3663 1.27954 20.3326C1.27954 20.299 1.30913 20.2695 1.34294 20.2695C1.38521 20.2695 1.40635 20.3158 1.40635 20.4168C1.40635 20.4967 1.39789 20.564 1.38521 20.564C1.37253 20.564 1.36408 20.5261 1.36408 20.4799Z" fill="#F9ADA0"/>
<path d="M15.3767 20.2205C15.3598 20.17 15.3555 20.1195 15.3682 20.1069C15.3809 20.0985 15.402 20.1279 15.4189 20.1784C15.4358 20.2289 15.4401 20.2794 15.4274 20.292C15.4147 20.3004 15.3936 20.271 15.3767 20.2205Z" fill="#F9ADA0"/>
<path d="M1.37723 20.0616C1.30115 20.0322 1.3096 19.9648 1.38568 19.9648C1.4195 19.9648 1.44909 19.9943 1.44909 20.0279C1.44909 20.0616 1.44486 20.091 1.44063 20.0868C1.43218 20.0868 1.40259 20.0742 1.37723 20.0616Z" fill="#F9ADA0"/>
<path d="M1.41493 19.8185C1.3473 19.747 1.35152 19.7176 1.42761 19.7176C1.46142 19.7176 1.49101 19.7007 1.49101 19.6755C1.49101 19.6545 1.4741 19.6334 1.44874 19.6334C1.37266 19.6334 1.40225 19.5493 1.48256 19.5451C1.52483 19.5451 1.53328 19.5325 1.50369 19.5198C1.42338 19.4904 1.43606 19.4231 1.52483 19.4189C1.5671 19.4189 1.57555 19.4063 1.54596 19.3936C1.46988 19.3642 1.47833 19.2969 1.55442 19.2969C1.6305 19.2969 1.6305 19.3011 1.54173 19.6166C1.48256 19.8269 1.46142 19.8648 1.41493 19.8185Z" fill="#F9ADA0"/>
<path d="M15.1062 19.4891C15.0555 19.3167 15.0216 19.1568 15.0386 19.1316C15.0512 19.1105 15.047 19.0895 15.0259 19.0895C15.0047 19.0895 14.9625 18.9296 14.9329 18.7319C14.8779 18.3701 14.8948 17.6508 14.9752 17.3016C15.0428 16.9903 15.0555 16.9314 15.0808 16.9104C15.0935 16.8977 15.102 17.4446 15.102 18.1303C15.102 19.161 15.1146 19.4008 15.1696 19.5691C15.2076 19.6784 15.2288 19.7752 15.2203 19.7878C15.2076 19.7962 15.1569 19.6658 15.1062 19.4891Z" fill="#F9ADA0"/>
<path d="M1.6304 19.1827C1.55432 19.1532 1.56277 19.0859 1.63886 19.0859C1.67267 19.0859 1.70226 19.1154 1.70226 19.149C1.70226 19.1827 1.69804 19.2121 1.69381 19.2079C1.68535 19.2079 1.65577 19.1953 1.6304 19.1827Z" fill="#F9ADA0"/>
<path d="M1.78701 18.7903C1.73629 18.7566 1.74052 18.7482 1.80815 18.7482C1.88 18.7482 1.88 18.7398 1.82928 18.7061C1.77433 18.6725 1.77856 18.6641 1.84196 18.6641C1.91805 18.6641 1.93073 18.6977 1.88 18.7776C1.85887 18.8113 1.82505 18.8155 1.78701 18.7903Z" fill="#F9ADA0"/>
<path d="M2.0535 18.3389C1.97742 18.3095 1.98587 18.2422 2.06195 18.2422C2.09577 18.2422 2.12536 18.2716 2.12536 18.3053C2.12536 18.3389 2.12113 18.3684 2.1169 18.3642C2.10845 18.3642 2.07886 18.3516 2.0535 18.3389Z" fill="#F9ADA0"/>
<path d="M2.84795 16.9408C2.80145 16.9156 2.81413 16.9029 2.89022 16.8903C2.95785 16.8819 2.99166 16.8525 2.98744 16.802C2.98321 16.7641 3.00435 16.7305 3.03816 16.7305C3.1227 16.7305 3.11002 16.7894 3.00012 16.8903C2.93671 16.9492 2.88599 16.966 2.84795 16.9408Z" fill="#F9ADA0"/>
</svg>
