<svg width="24" height="25" viewBox="0 0 24 25" fill="none" xmlns="http://www.w3.org/2000/svg">
<rect x="1.5" y="2.46045" width="21" height="21" rx="6" fill="#F9ADA0"/>
<rect x="1.5" y="2.46045" width="21" height="21" rx="6" fill="#F9ADA0"/>
<rect x="1.5" y="2.46045" width="21" height="21" rx="6" fill="#F9ADA0"/>
<path d="M17.25 8.83545C17.25 9.45677 16.7463 9.96045 16.125 9.96045C15.5037 9.96045 15 9.45677 15 8.83545C15 8.21413 15.5037 7.71045 16.125 7.71045C16.7463 7.71045 17.25 8.21413 17.25 8.83545Z" fill="#F9FCFF"/>
<path fill-rule="evenodd" clip-rule="evenodd" d="M12 16.7104C14.0711 16.7104 15.75 15.0315 15.75 12.9604C15.75 10.8894 14.0711 9.21045 12 9.21045C9.92893 9.21045 8.25 10.8894 8.25 12.9604C8.25 15.0315 9.92893 16.7104 12 16.7104ZM12 15.2104C13.2426 15.2104 14.25 14.2031 14.25 12.9604C14.25 11.7178 13.2426 10.7104 12 10.7104C10.7574 10.7104 9.75 11.7178 9.75 12.9604C9.75 14.2031 10.7574 15.2104 12 15.2104Z" fill="#F9FCFF"/>
<path fill-rule="evenodd" clip-rule="evenodd" d="M4.5 12.6604C4.5 10.1402 4.5 8.88009 4.99047 7.91749C5.4219 7.07076 6.11031 6.38235 6.95704 5.95092C7.91965 5.46045 9.17976 5.46045 11.7 5.46045H12.3C14.8202 5.46045 16.0804 5.46045 17.043 5.95092C17.8897 6.38235 18.5781 7.07076 19.0095 7.91749C19.5 8.88009 19.5 10.1402 19.5 12.6604V13.2604C19.5 15.7807 19.5 17.0408 19.0095 18.0034C18.5781 18.8501 17.8897 19.5385 17.043 19.97C16.0804 20.4604 14.8202 20.4604 12.3 20.4604H11.7C9.17976 20.4604 7.91965 20.4604 6.95704 19.97C6.11031 19.5385 5.4219 18.8501 4.99047 18.0034C4.5 17.0408 4.5 15.7807 4.5 13.2604V12.6604ZM11.7 6.96045H12.3C13.5849 6.96045 14.4583 6.96162 15.1334 7.01678C15.7911 7.07051 16.1274 7.1679 16.362 7.28743C16.9265 7.57505 17.3854 8.03399 17.673 8.59848C17.7926 8.83308 17.8899 9.16938 17.9437 9.82701C17.9988 10.5021 18 11.3756 18 12.6604V13.2604C18 14.5453 17.9988 15.4188 17.9437 16.0939C17.8899 16.7515 17.7926 17.0878 17.673 17.3224C17.3854 17.8869 16.9265 18.3458 16.362 18.6335C16.1274 18.753 15.7911 18.8504 15.1334 18.9041C14.4583 18.9593 13.5849 18.9604 12.3 18.9604H11.7C10.4151 18.9604 9.54169 18.9593 8.86656 18.9041C8.20893 18.8504 7.87263 18.753 7.63803 18.6335C7.07354 18.3458 6.6146 17.8869 6.32698 17.3224C6.20745 17.0878 6.11006 16.7515 6.05633 16.0939C6.00117 15.4188 6 14.5453 6 13.2604V12.6604C6 11.3756 6.00117 10.5021 6.05633 9.82701C6.11006 9.16938 6.20745 8.83308 6.32698 8.59848C6.6146 8.03399 7.07354 7.57505 7.63803 7.28743C7.87263 7.1679 8.20893 7.07051 8.86656 7.01678C9.54169 6.96162 10.4151 6.96045 11.7 6.96045Z" fill="#F9FCFF"/>
</svg>
