<svg width="22" height="21" viewBox="0 0 22 21" fill="none" xmlns="http://www.w3.org/2000/svg">
<g clip-path="url(#clip0_140_162)">
<path d="M0.666626 1.50412C0.666626 0.673313 1.357 0 2.20881 0H20.1244C20.9763 0 21.6666 0.673313 21.6666 1.50412V19.4959C21.6666 20.3267 20.9763 21 20.1244 21H2.20881C1.357 21 0.666626 20.3267 0.666626 19.4959V1.50412ZM7.15431 17.5796V8.09681H4.003V17.5796H7.15431ZM5.57931 6.80138C6.67788 6.80138 7.36169 6.07425 7.36169 5.16337C7.342 4.23281 6.67919 3.52538 5.60031 3.52538C4.52144 3.52538 3.81663 4.23413 3.81663 5.16337C3.81663 6.07425 4.50044 6.80138 5.55831 6.80138H5.57931ZM12.0211 17.5796V12.2837C12.0211 12.0002 12.0421 11.7167 12.1261 11.5146C12.3531 10.9489 12.8716 10.3622 13.7431 10.3622C14.8836 10.3622 15.3391 11.2311 15.3391 12.5068V17.5796H18.4904V12.1406C18.4904 9.22688 16.9364 7.87238 14.8626 7.87238C13.1905 7.87238 12.4411 8.79113 12.0211 9.43819V9.471H12.0001L12.0211 9.43819V8.09681H8.87106C8.91044 8.98669 8.87106 17.5796 8.87106 17.5796H12.0211Z" fill="#F9ADA0"/>
</g>
<defs>
<clipPath id="clip0_140_162">
<rect width="21" height="21" fill="white" transform="translate(0.666626)"/>
</clipPath>
</defs>
</svg>
