<svg width="21" height="25" viewBox="0 0 21 25" fill="none" xmlns="http://www.w3.org/2000/svg">
<path d="M19.5 11.1093C17.7305 11.1131 16.0046 10.5607 14.5661 9.53024V16.7142C14.5657 18.0447 14.159 19.3433 13.4005 20.4365C12.6421 21.5296 11.5679 22.3651 10.3217 22.8312C9.07553 23.2973 7.71674 23.3718 6.42707 23.0447C5.1374 22.7176 3.97833 22.0046 3.10489 21.001C2.23144 19.9973 1.68526 18.7509 1.53939 17.4284C1.39352 16.1059 1.65491 14.7704 2.28861 13.6005C2.92231 12.4307 3.8981 11.4821 5.08548 10.8818C6.27286 10.2816 7.61523 10.0581 8.93304 10.2414V13.8535C8.33047 13.6638 7.68337 13.6693 7.08414 13.8693C6.48491 14.0693 5.96419 14.4535 5.59632 14.9671C5.22846 15.4807 5.03227 16.0973 5.03576 16.729C5.03926 17.3607 5.24225 17.9752 5.61577 18.4847C5.98929 18.9941 6.51422 19.3726 7.11563 19.5659C7.71703 19.7593 8.36415 19.7577 8.96459 19.5613C9.56503 19.365 10.0881 18.984 10.4591 18.4727C10.8301 17.9614 11.03 17.3459 11.0304 16.7142V2.67578H14.5661C14.5641 2.97482 14.5896 3.2734 14.6424 3.56775C14.7654 4.22386 15.0208 4.84801 15.3932 5.40205C15.7655 5.9561 16.247 6.42839 16.808 6.79007C17.6067 7.31755 18.5429 7.5984 19.5 7.59765V11.1093Z" fill="#F9ADA0"/>
</svg>
