<svg width="24" height="25" viewBox="0 0 24 25" fill="none" xmlns="http://www.w3.org/2000/svg">
<path d="M19.3547 5.51201C17.3906 3.54326 14.775 2.46045 11.9953 2.46045C6.25781 2.46045 1.58906 7.1292 1.58906 12.8667C1.58906 14.6995 2.06719 16.4901 2.97656 18.0698L1.5 23.4604L7.01719 22.012C8.53594 22.8417 10.2469 23.2776 11.9906 23.2776H11.9953C17.7281 23.2776 22.5 18.6089 22.5 12.8714C22.5 10.0917 21.3188 7.48076 19.3547 5.51201ZM11.9953 21.5245C10.4391 21.5245 8.91562 21.1073 7.58906 20.3198L7.275 20.1323L4.00313 20.9901L4.875 17.7979L4.66875 17.4698C3.80156 16.0917 3.34688 14.5026 3.34688 12.8667C3.34688 8.09951 7.22812 4.21826 12 4.21826C14.3109 4.21826 16.4812 5.11826 18.1125 6.7542C19.7437 8.39014 20.7469 10.5604 20.7422 12.8714C20.7422 17.6433 16.7625 21.5245 11.9953 21.5245ZM16.7391 15.0464C16.4813 14.9151 15.2016 14.287 14.9625 14.2026C14.7234 14.1136 14.55 14.0714 14.3766 14.3339C14.2031 14.5964 13.7063 15.1776 13.5516 15.3558C13.4016 15.5292 13.2469 15.5526 12.9891 15.4214C11.4609 14.6573 10.4578 14.0573 9.45 12.3276C9.18281 11.8683 9.71719 11.9011 10.2141 10.9073C10.2984 10.7339 10.2562 10.5839 10.1906 10.4526C10.125 10.3214 9.60469 9.0417 9.38906 8.52139C9.17813 8.01514 8.9625 8.08545 8.80313 8.07607C8.65313 8.0667 8.47969 8.0667 8.30625 8.0667C8.13281 8.0667 7.85156 8.13232 7.6125 8.39014C7.37344 8.65264 6.70312 9.28076 6.70312 10.5604C6.70312 11.8401 7.63594 13.0776 7.7625 13.2511C7.89375 13.4245 9.59531 16.0495 12.2062 17.1792C13.8562 17.8917 14.5031 17.9526 15.3281 17.8308C15.8297 17.7558 16.8656 17.2026 17.0812 16.5933C17.2969 15.9839 17.2969 15.4636 17.2313 15.3558C17.1703 15.2386 16.9969 15.1729 16.7391 15.0464Z" fill="#F9ADA0"/>
</svg>
